<svg width="13" height="15" viewBox="0 0 13 15" fill="none" xmlns="http://www.w3.org/2000/svg">
<path d="M5.5814 9.06977V14.6512H0C0 13.1709 0.588038 11.7512 1.63475 10.7045C2.68147 9.65781 4.10112 9.06977 5.5814 9.06977ZM5.5814 8.37209C3.2686 8.37209 1.39535 6.49884 1.39535 4.18605C1.39535 1.87326 3.2686 0 5.5814 0C7.89419 0 9.76744 1.87326 9.76744 4.18605C9.76744 6.49884 7.89419 8.37209 5.5814 8.37209ZM7.39186 12.427C7.3034 12.0547 7.3034 11.6669 7.39186 11.2947L6.69977 10.8949L7.39744 9.68651L8.08953 10.0863C8.36732 9.82317 8.70311 9.62911 9.06977 9.51977V8.72093H10.4651V9.51977C10.8363 9.63 11.1712 9.82674 11.4453 10.0863L12.1374 9.68651L12.8351 10.8949L12.143 11.2947C12.2314 11.6667 12.2314 12.0542 12.143 12.4263L12.8351 12.826L12.1374 14.0344L11.4453 13.6347C11.1676 13.8978 10.8318 14.0918 10.4651 14.2012V15H9.06977V14.2012C8.70311 14.0918 8.36732 13.8978 8.08953 13.6347L7.39744 14.0344L6.69977 12.826L7.39186 12.427ZM9.76744 11.1628C9.58241 11.1628 9.40495 11.2363 9.27411 11.3671C9.14327 11.498 9.06977 11.6754 9.06977 11.8605C9.06977 12.0455 9.14327 12.223 9.27411 12.3538C9.40495 12.4846 9.58241 12.5581 9.76744 12.5581C9.95248 12.5581 10.1299 12.4846 10.2608 12.3538C10.3916 12.223 10.4651 12.0455 10.4651 11.8605C10.4651 11.6754 10.3916 11.498 10.2608 11.3671C10.1299 11.2363 9.95248 11.1628 9.76744 11.1628Z" fill="#666666"/>
</svg>
