<svg width="36" height="36" viewBox="0 0 36 36" fill="none" xmlns="http://www.w3.org/2000/svg">
<path d="M6.67964 0C4.91021 0.00689507 3.21522 0.712855 1.96404 1.96404C0.712855 3.21522 0.00689507 4.91021 0 6.67964V29.3204C0.00689507 31.0898 0.712855 32.7848 1.96404 34.036C3.21522 35.2871 4.91021 35.9931 6.67964 36H29.3204C31.0898 35.9931 32.7848 35.2871 34.036 34.036C35.2871 32.7848 35.9931 31.0898 36 29.3204V6.67964C35.9931 4.91021 35.2871 3.21522 34.036 1.96404C32.7848 0.712855 31.0898 0.00689507 29.3204 0H6.67964ZM6.67964 3.27273H29.3204C31.2185 3.27273 32.7273 4.78145 32.7273 6.67964V29.3204C32.7273 31.2185 31.2185 32.7273 29.3204 32.7273H6.67964C6.23145 32.7301 5.78715 32.6439 5.37253 32.4737C4.95791 32.3035 4.58122 32.0526 4.26429 31.7357C3.94737 31.4188 3.69652 31.0421 3.52631 30.6275C3.3561 30.2128 3.2699 29.7686 3.27273 29.3204V6.67964C3.27273 4.78145 4.78145 3.27273 6.67964 3.27273Z" fill="#E4E22C"/>
<path d="M18 12.6C16.5678 12.6 15.1943 13.1689 14.1816 14.1816C13.1689 15.1943 12.6 16.5678 12.6 18C12.6 19.4322 13.1689 20.8057 14.1816 21.8184C15.1943 22.8311 16.5678 23.4 18 23.4C19.4322 23.4 20.8057 22.8311 21.8184 21.8184C22.8311 20.8057 23.4 19.4322 23.4 18C23.4 16.5678 22.8311 15.1943 21.8184 14.1816C20.8057 13.1689 19.4322 12.6 18 12.6ZM18 8.99999C20.3869 8.99999 22.6761 9.9482 24.364 11.636C26.0518 13.3239 27 15.613 27 18C27 20.3869 26.0518 22.6761 24.364 24.3639C22.6761 26.0518 20.3869 27 18 27C15.6131 27 13.3239 26.0518 11.636 24.3639C9.94821 22.6761 9 20.3869 9 18C9 15.613 9.94821 13.3239 11.636 11.636C13.3239 9.9482 15.6131 8.99999 18 8.99999ZM29.7 8.54999C29.7 9.14672 29.4629 9.71902 29.041 10.141C28.619 10.5629 28.0467 10.8 27.45 10.8C26.8533 10.8 26.281 10.5629 25.859 10.141C25.4371 9.71902 25.2 9.14672 25.2 8.54999C25.2 7.95325 25.4371 7.38095 25.859 6.959C26.281 6.53704 26.8533 6.29999 27.45 6.29999C28.0467 6.29999 28.619 6.53704 29.041 6.959C29.4629 7.38095 29.7 7.95325 29.7 8.54999Z" fill="#E4E22C"/>
</svg>
