<svg width="203" height="72" viewBox="0 0 203 72" fill="none" xmlns="http://www.w3.org/2000/svg">
<g clip-path="url(#clip0)">
<path d="M165.228 30.9874C165.477 30.7961 165.659 30.6161 165.874 30.4698C166.612 29.9748 167.395 30.031 168.064 30.6161C168.643 31.1224 168.779 31.8538 168.359 32.6077C167.758 33.7216 166.782 34.3742 165.557 34.5992C165.001 34.7005 164.955 34.9255 165.114 35.3531C165.386 36.107 165.749 36.9058 165.545 37.6935C164.933 40.0113 165.364 42.3854 165.148 44.7146C165.08 45.4572 165.364 46.0648 165.659 46.6836C165.999 47.3925 165.954 47.5162 165.352 48.0226C165.182 48.1688 165.001 48.3151 164.808 48.4276C164.331 48.6977 163.9 49.2603 163.242 48.7989C162.47 48.2589 161.551 47.7525 161.721 46.6274C162.141 43.7582 161.858 40.8777 162.028 37.9973C162.062 37.3784 162.039 36.7596 162.062 36.1407C162.073 35.7919 162.039 35.6344 161.608 35.7694C158.057 36.8946 154.414 37.4572 150.67 37.2996C150.364 37.2884 150.262 37.3559 150.216 37.6822C150.148 38.2335 150.273 38.5711 150.749 38.9762C152.701 40.6639 153.473 42.858 153.053 45.3784C152.724 47.3362 150.999 48.3489 149.116 47.6963C148.106 47.3475 147.731 46.4473 147.652 45.4797C147.504 43.4431 147.414 41.4065 147.289 39.37C147.266 39.0324 147.232 38.6949 147.164 38.3686C147.05 37.8172 146.733 37.4234 146.165 37.2659C146.052 37.2321 145.95 37.1871 145.848 37.1421C144.917 36.7596 144.815 36.1182 145.564 35.4431C147.311 33.8566 147.198 34.4755 147.164 31.82C147.13 29.5584 147.107 27.2856 147.073 25.024C147.073 24.934 147.073 24.8327 147.073 24.7427C147.073 23.6175 147.561 22.7736 148.355 22.5148C149.161 22.256 150.205 22.7174 150.817 23.6175C151.544 24.6752 151.873 25.9354 151.351 27.038C150.488 28.8608 150.886 30.7736 150.579 32.6302C150.568 32.7202 150.568 32.8214 150.568 32.9115C150.477 34.0254 150.477 34.0254 151.634 34.0366C155.163 34.0591 158.522 33.249 161.79 32.0001C162.096 31.8876 162.164 31.7075 162.164 31.415C162.187 29.3559 162.232 27.2968 162.277 25.2378C162.277 24.934 162.311 24.6414 162.38 24.3489C162.754 22.7061 164.036 22.6048 165.228 22.9874C165.727 23.1449 165.784 23.6175 165.795 24.0563C165.829 25.6878 165.727 27.3081 165.511 28.9283C165.409 29.6034 165.318 30.2673 165.228 30.9874Z" fill="white"/>
<path d="M99.3272 30.9648C99.6223 30.7398 99.8265 30.571 100.042 30.436C100.734 29.9972 101.494 30.0534 102.13 30.6048C102.708 31.0998 102.856 31.7974 102.493 32.5401C101.903 33.7102 100.893 34.3741 99.6336 34.6104C99.1344 34.7117 99.0549 34.8917 99.2138 35.3305C99.3726 35.7918 99.4974 36.2531 99.6223 36.7257C99.7244 37.1083 99.7811 37.5358 99.6336 37.8959C99.1911 38.9761 99.3386 40.1012 99.3046 41.2152C99.2705 42.2841 99.3045 43.353 99.2365 44.4107C99.1911 45.2208 99.3386 45.9522 99.7244 46.6723C100.11 47.4036 100.053 47.5274 99.4294 48.045C99.2819 48.1688 99.1344 48.2813 98.9755 48.3825C98.4195 48.7314 97.9203 49.2827 97.1714 48.7201C96.3545 48.1013 95.5375 47.4712 95.8552 46.2897C96.0254 45.6371 96.0254 44.9958 96.0368 44.3432C96.0708 41.6315 96.1048 38.9198 96.1616 36.2081C96.1729 35.7693 96.1048 35.668 95.6396 35.8143C92.1222 36.917 88.514 37.4796 84.8151 37.3221C84.452 37.3108 84.3158 37.3896 84.3045 37.7609C84.2931 38.1997 84.2137 38.5485 84.713 38.8861C86.6532 40.2363 87.7311 43.4768 87.073 45.7271C86.5738 47.4824 84.8718 48.3713 83.1585 47.7074C82.2394 47.3474 81.8423 46.526 81.7742 45.6146C81.6154 43.7356 81.5359 41.8453 81.4225 39.955C81.3998 39.5949 81.3771 39.2461 81.3544 38.8861C81.2977 38.0422 80.9346 37.4683 80.0609 37.187C78.9603 36.827 78.8695 36.1744 79.7319 35.398C81.3544 33.9353 81.2863 34.4529 81.2409 32.0225C81.1956 29.6259 81.1842 27.2292 81.1615 24.8326C81.1502 23.6287 81.6608 22.751 82.4891 22.5147C83.34 22.2784 84.3839 22.796 84.9966 23.7749C85.6547 24.8213 85.9724 26.0703 85.4391 27.0942C84.6676 28.5794 84.9966 30.1209 84.7357 31.6174C84.6335 32.225 84.6676 32.8551 84.5995 33.4627C84.5428 33.8903 84.6903 34.014 85.1101 34.0253C86.7667 34.0928 88.4006 33.9578 90.0118 33.6652C91.9634 33.3164 93.8696 32.7651 95.7191 32.0562C96.1162 31.91 96.2637 31.7187 96.2637 31.2911C96.275 29.2658 96.3318 27.2517 96.3772 25.2264C96.3885 24.9451 96.3998 24.6638 96.4566 24.3938C96.797 22.796 97.9316 22.571 99.2592 22.9536C99.8265 23.1111 99.8832 23.6174 99.8832 24.09C99.9059 25.6202 99.8151 27.1617 99.6223 28.6807C99.5315 29.4233 99.4407 30.1434 99.3272 30.9648Z" fill="white"/>
<path d="M133.174 41.4625C133.185 40.2698 133.299 39.1784 133.14 38.0983C133.049 37.4569 132.868 36.8493 132.403 36.3767C131.813 35.7804 131.132 35.7691 130.61 36.3992C129.067 38.2895 127.875 40.3824 127.036 42.6665C126.809 43.2853 126.605 43.9042 126.276 44.478C126.037 44.8831 125.742 45.2544 125.368 45.5469C124.301 46.357 123.439 46.1095 123.03 44.8606C122.611 43.6004 122.565 42.2839 122.52 40.9787C122.486 40.0111 122.508 39.0322 122.486 38.0645C122.474 37.5244 122.35 37.4794 121.873 37.7382C121.408 37.997 121.158 38.3908 120.999 38.8746C120.251 41.215 119.865 43.6004 120.171 46.0532C120.273 46.9196 120.103 47.7298 119.615 48.4611C119.116 49.2262 118.367 49.2037 117.845 48.4724C117.471 47.9548 117.403 47.3697 117.391 46.7734C117.346 45.0856 117.55 43.4091 117.652 41.7326C117.675 41.395 117.72 41.0575 117.709 40.7199C117.641 38.3345 118.81 36.523 120.466 34.9928C122.021 33.5638 123.235 33.8451 124.165 35.7241C124.642 36.6805 124.903 37.727 125.254 38.7284C125.322 38.9084 125.322 39.2009 125.561 39.2234C125.776 39.2347 125.867 38.9646 125.969 38.7959C126.854 37.3781 127.648 35.9154 128.749 34.644C129.18 34.1489 129.645 33.6763 130.213 33.3275C131.143 32.7424 132.051 32.7537 132.959 33.395C133.832 34.0139 134.4 34.869 134.808 35.8254C135.489 37.3894 135.795 39.0434 135.841 40.7312C135.863 41.5976 135.886 42.4527 136.056 43.2966C136.147 43.7804 136.317 44.2192 136.623 44.6243C137.066 45.2319 137.179 45.9295 137.055 46.6608C136.896 47.5947 136.181 47.9098 135.33 47.4372C134.014 46.6946 133.322 45.5694 133.254 44.0617C133.197 43.139 133.14 42.2389 133.174 41.4625Z" fill="white"/>
<path d="M188.375 40.225C188.375 39.5161 188.386 38.8073 188.375 38.0871C188.363 37.4795 188.25 37.4345 187.705 37.7608C187.285 38.0084 187.047 38.3909 186.911 38.8185C186.162 41.1589 185.765 43.533 186.071 45.9971C186.173 46.841 186.026 47.6399 185.572 48.3712C185.05 49.2264 184.267 49.2264 183.7 48.405C183.291 47.8087 183.28 47.1336 183.28 46.4697C183.269 44.5456 183.586 42.6216 183.586 40.6976C183.586 38.4134 184.676 36.6694 186.196 35.1167C186.582 34.7229 187.047 34.4416 187.569 34.239C188.295 33.969 188.829 34.0815 189.362 34.6441C189.997 35.3192 190.304 36.1631 190.599 37.0182C190.814 37.6371 190.996 38.2672 191.211 38.886C191.257 39.0098 191.268 39.2123 191.461 39.2123C191.608 39.2123 191.676 39.066 191.733 38.9535C192.13 38.3234 192.516 37.6708 192.913 37.0407C193.56 36.0056 194.241 34.9929 195.103 34.1153C195.409 33.8115 195.739 33.5302 196.113 33.2939C197.043 32.7201 197.951 32.7313 198.859 33.3727C199.801 34.0478 200.379 34.9817 200.799 36.0168C201.4 37.5246 201.707 39.0998 201.729 40.7201C201.741 41.5414 201.786 42.3628 201.922 43.1729C202.013 43.6905 202.195 44.1743 202.512 44.6132C202.978 45.2545 203.068 45.9971 202.91 46.751C202.739 47.5274 202.07 47.8537 201.355 47.4711C200.22 46.8523 199.392 45.9971 199.211 44.6244C199.029 43.2404 199.074 41.8677 199.086 40.4838C199.097 39.6286 199.165 38.7622 198.995 37.9071C198.882 37.3333 198.7 36.7819 198.269 36.3544C197.679 35.7693 196.987 35.758 196.476 36.3994C194.933 38.3122 193.719 40.4163 192.891 42.7229C192.618 43.4767 192.369 44.2531 191.858 44.8945C191.676 45.1307 191.461 45.3558 191.234 45.5358C190.19 46.3459 189.305 46.0871 188.908 44.8382C188.431 43.3417 188.454 41.7777 188.375 40.225Z" fill="white"/>
<path d="M142.829 39.4488C143.295 39.4375 143.862 39.46 144.407 39.6175C144.792 39.73 145.178 39.8876 145.258 40.3376C145.337 40.7765 144.997 41.024 144.679 41.2265C143.453 41.9916 142.081 42.2954 140.674 42.4755C140.072 42.5542 139.471 42.5767 138.869 42.4755C137.939 42.318 137.406 41.4516 137.678 40.5627C137.792 40.2026 138.041 39.9776 138.404 39.9326C139.845 39.7188 141.275 39.46 142.829 39.4488Z" fill="white"/>
<path fill-rule="evenodd" clip-rule="evenodd" d="M178.21 42.9229L178.367 42.8018C178.514 44.242 178.56 45.5697 178.412 46.9087C178.299 47.7863 178.594 48.4277 179.331 48.9227C179.751 49.204 180.103 49.1478 180.466 48.8665C181.351 48.1801 181.646 47.4038 181.169 46.2223C180.673 45.0158 180.627 43.7845 180.581 42.5425C180.574 42.3367 180.566 42.1305 180.557 41.9242C180.534 41.2941 180.511 40.6415 180.704 40.0339C180.863 39.5163 180.897 38.9987 180.84 38.4811C180.82 38.2853 180.802 38.0883 180.784 37.891C180.724 37.227 180.663 36.5602 180.489 35.927C180.193 34.8918 180.341 34.1829 181.419 33.7216C181.93 33.4966 181.918 33.1703 181.476 32.8215C180.852 32.3376 180.148 31.9663 179.377 31.8988C177.368 31.7188 175.337 31.5388 173.329 31.8426C171.582 32.1126 170.152 32.979 169.312 34.5542C167.917 37.1759 169.482 40.3152 172.535 41.1365C173.091 41.2941 173.661 41.3087 174.234 41.3233C174.397 41.3274 174.561 41.3316 174.724 41.3391C174.756 41.3408 174.789 41.3415 174.822 41.3421C175.003 41.3458 175.194 41.3497 175.28 41.5304C175.384 41.7453 175.233 41.9137 175.094 42.0694C175.081 42.0849 175.067 42.1002 175.054 42.1154C174.486 42.7343 173.771 43.1619 173.045 43.5557C172.32 43.949 171.562 44.2811 170.804 44.6134C170.304 44.8324 169.803 45.0516 169.312 45.2884C168.892 45.4797 168.518 45.7047 168.257 46.1098C167.69 46.9762 167.996 47.7188 169.006 47.9776C169.732 48.1689 170.39 48.0001 171.037 47.7076C172.262 47.1562 173.386 46.4361 174.486 45.6823C175.74 44.8285 176.94 43.9021 178.21 42.9229ZM177.209 39.472C177.179 39.4715 177.149 39.4713 177.119 39.4713C176.993 39.4713 176.869 39.469 176.745 39.4642C175.957 39.4342 175.207 39.3074 174.5 39.0702C173.544 38.7494 172.666 38.2266 171.877 37.4685C171.503 37.1036 171.311 36.7338 171.304 36.3731C171.292 35.962 171.521 35.5629 172.001 35.1956C172.988 34.4417 174.168 34.1717 175.36 33.9579C175.995 33.8454 176.63 33.8004 177.277 33.8342C177.606 33.8566 177.765 33.9692 177.822 34.3292C177.949 35.1801 178.099 36.031 178.249 36.8819C178.339 37.3925 178.429 37.903 178.514 38.4136C178.52 38.4518 178.526 38.4883 178.531 38.5237C178.649 39.2702 178.491 39.4173 177.686 39.4713C177.558 39.4787 177.435 39.4763 177.31 39.4738C177.276 39.4731 177.243 39.4725 177.209 39.472Z" fill="white"/>
<path fill-rule="evenodd" clip-rule="evenodd" d="M112.051 31.7854C111.651 31.7794 111.263 31.7735 110.9 31.7188C110.423 31.7188 109.993 31.7126 109.585 31.7067C109.217 31.7013 108.867 31.6963 108.518 31.6963C107.723 31.7188 106.929 31.8088 106.192 32.1351C104.331 32.934 103.003 34.2054 102.89 36.3095C102.788 38.1998 103.729 39.595 105.329 40.5739C106.316 41.1815 107.417 41.3053 108.54 41.3053C108.598 41.3053 108.66 41.301 108.723 41.2965C108.981 41.2785 109.257 41.2591 109.357 41.5303C109.471 41.8225 109.243 42.02 109.033 42.202C108.992 42.2373 108.952 42.272 108.915 42.3067C108.189 43.0156 107.292 43.4769 106.396 43.9044C105.578 44.297 104.753 44.6692 103.927 45.0421C103.687 45.1502 103.447 45.2584 103.208 45.3672C102.765 45.5697 102.425 45.8848 102.209 46.3236C101.869 47.0324 102.107 47.6175 102.856 47.8876C103.423 48.1014 103.99 48.1126 104.569 47.9101C105.375 47.6288 106.112 47.2237 106.838 46.7849C108.642 45.7047 110.31 44.4445 111.956 43.1618C111.994 43.1337 112.03 43.0977 112.068 43.0617C112.164 42.968 112.261 42.8737 112.375 42.9143C112.531 42.971 112.521 43.121 112.512 43.2636C112.509 43.319 112.505 43.3734 112.512 43.4206C112.625 44.6246 112.625 45.8173 112.489 47.0099C112.398 47.8426 112.739 48.4389 113.431 48.9002C113.828 49.159 114.168 49.1253 114.52 48.8552C115.428 48.1801 115.745 47.4375 115.28 46.2786C114.68 44.7508 114.671 43.188 114.661 41.6135C114.66 41.4022 114.659 41.1907 114.656 40.979C114.656 40.6302 114.679 40.2701 114.804 39.9326C114.951 39.5163 114.985 39.0887 114.94 38.6611C114.917 38.4474 114.898 38.233 114.879 38.0185C114.821 37.375 114.764 36.7315 114.611 36.107C114.327 35.0156 114.304 34.1379 115.575 33.6541C116.018 33.4853 115.995 33.159 115.598 32.8215C115.269 32.5459 114.874 32.3722 114.481 32.1995C114.441 32.1818 114.401 32.1641 114.361 32.1464C113.599 31.8086 112.802 31.7967 112.051 31.7854ZM111.808 39.4713C111.672 39.4788 111.53 39.4762 111.39 39.4737C111.321 39.4725 111.252 39.4713 111.184 39.4713C110.711 39.4685 110.251 39.433 109.804 39.3617C108.416 39.1404 107.16 38.5739 106.078 37.5697C105.618 37.14 105.39 36.7209 105.401 36.3186C105.408 35.8844 105.692 35.4702 106.26 35.0831C107.236 34.4192 108.348 34.1492 109.494 33.9579C110.129 33.8454 110.765 33.8004 111.411 33.8454C111.548 33.8567 111.662 33.8823 111.749 33.9436C111.821 33.9924 111.875 34.0665 111.905 34.1773C111.911 34.2002 111.917 34.2243 111.922 34.2504C112.019 34.858 112.123 35.4656 112.226 36.0732C112.364 36.8833 112.502 37.6935 112.625 38.5036C112.632 38.5471 112.637 38.5883 112.642 38.6278C112.734 39.2936 112.572 39.4179 111.808 39.4713Z" fill="white"/>
<path d="M38.0903 43.7019C37.7046 45.6372 37.5911 47.6062 37.4322 49.5528C37.262 51.6344 37.1145 53.7272 36.967 55.82C36.9443 56.1913 36.7968 56.3601 36.3997 56.4389C35.1176 56.6752 33.8127 56.7539 32.5079 56.7539C32.1221 56.7539 31.9973 56.5514 31.8725 56.2588C31.7363 55.955 31.759 55.73 32.0313 55.5275C32.1675 55.4262 32.2923 55.3137 32.4057 55.1899C33.166 54.3348 34.0283 53.9072 35.1743 54.5036C35.5147 54.6836 35.6622 54.5486 35.6622 54.1435C35.6849 50.4304 35.2651 46.7511 34.5956 43.1055C34.4935 42.5542 34.0623 42.4529 33.6879 42.3067C33.2227 42.1266 33.1319 41.9129 33.3021 41.4403C33.8921 39.7863 34.1871 38.076 34.1531 36.3207C34.1418 35.9494 34.2098 35.7131 34.5956 35.5219C35.1743 35.2406 35.4806 34.7342 35.6055 34.1041C35.6395 33.9466 35.5941 33.6653 35.9118 33.7666C36.2182 33.8678 36.6493 33.7553 36.8082 34.0816C36.8876 34.2617 36.7061 34.5542 36.4224 34.6217C36.1387 34.7005 36.048 34.948 35.8891 35.1393C35.0268 36.1745 35.1629 37.4122 35.1062 38.6048C35.0608 39.4262 34.9927 40.2476 34.8679 41.0577C34.7999 41.4965 34.9701 41.7103 35.4012 41.8003C37.7386 42.2954 39.9398 41.9466 42.0276 40.8214C42.7197 40.4389 42.7084 40.4389 43.0261 41.159C43.1282 41.384 43.1168 41.5415 42.9126 41.6878C42.7311 41.8228 42.5609 42.0029 42.3566 42.0704C41.4829 42.3967 41.3014 43.0718 41.1993 43.9044C40.8475 46.6048 40.4164 49.3053 40.0193 52.0057C39.9171 52.7483 39.8491 53.4909 39.7469 54.2335C39.7015 54.5823 39.8604 54.6836 40.1668 54.6048C40.5298 54.5148 40.8929 54.4136 41.256 54.3123C41.6758 54.1998 42.0389 54.2448 42.3339 54.5823C42.697 55.0099 43.287 55.2799 43.253 55.9776C43.2417 56.3039 43.1395 56.4501 42.8105 56.4839C41.5056 56.6189 40.2121 56.5851 38.9186 56.3714C38.6577 56.3264 38.5329 56.2026 38.5442 55.9213C38.5669 55.4487 38.5556 54.9874 38.5442 54.5148C38.5102 51.7694 38.4988 49.0127 38.4421 46.2673C38.408 45.4122 38.3854 44.5345 38.0903 43.7019Z" fill="white"/>
<path d="M29.1261 29.3335C29.0693 28.816 28.8197 28.3772 28.6609 27.9046C28.5133 27.432 28.2864 26.9819 28.3091 26.4644C28.5587 26.4756 28.5474 26.6556 28.5928 26.7794C28.8424 27.4995 29.0807 28.2309 29.3416 28.951C29.5232 29.4686 30.6465 29.6711 31.0096 29.2548C31.2252 29.0072 30.9642 28.951 30.794 28.8947C30.4422 28.7935 30.0451 28.9397 29.6707 28.771C30.2267 28.4447 31.3727 28.5572 31.7584 28.951C31.9059 29.0973 31.9059 29.2435 31.8379 29.4123C31.5542 30.0537 31.6677 30.74 31.6223 31.4039C31.5996 31.6964 31.7811 31.7864 32.0194 31.8539C32.564 32.0227 33.0973 32.2027 33.6193 32.4053C33.8462 32.4953 34.0618 32.6191 34.266 32.7541C35.3439 33.4854 35.3553 34.3968 34.2774 35.1169C33.0746 35.9271 31.6677 36.2084 30.2721 36.3884C27.8779 36.7034 25.4838 36.6134 23.1351 35.9721C22.3636 35.7583 21.6147 35.5107 20.9793 35.0269C20.1056 34.3743 20.117 33.4629 21.002 32.8553C22.3522 31.9327 23.9067 31.6402 25.4952 31.5051C26.5277 31.4151 27.5716 31.3701 28.6041 31.4039C28.9105 31.4151 29.058 31.3589 28.9786 30.9988C28.8537 30.4925 28.9672 29.9074 28.468 29.5136C28.3432 29.4123 28.3772 29.2773 28.502 29.176C28.6155 29.086 28.7403 29.0523 28.8311 29.2098C28.8764 29.266 28.9218 29.3448 29.1261 29.3335ZM23.9861 32.4728C23.4982 32.3603 23.1465 32.7878 22.6926 32.9229C22.0459 33.1029 21.7282 33.4404 21.8303 33.8905C21.9437 34.3856 22.5338 34.7344 23.1124 34.6556C23.1805 34.6444 23.3167 34.6669 23.3167 34.6781C23.3167 35.2407 23.7932 34.9932 24.0542 35.1057C24.8371 35.4545 25.6313 34.8469 26.4369 35.1057C26.5164 35.1282 26.6866 35.1394 26.7093 34.9932C26.732 34.7906 26.8454 34.8582 26.9475 34.8807C27.6851 35.0832 28.2183 34.7006 28.6949 34.2393C29.0693 33.868 28.9899 33.5417 28.536 33.2492C28.2297 33.0354 27.8666 32.9003 27.5602 32.7316C26.9702 32.394 26.3689 32.4728 25.7788 32.3828C25.6654 32.3603 25.4611 32.2703 25.4952 32.5628C25.5406 32.9904 25.1661 32.9679 24.9165 33.0016C24.6782 33.0354 24.3946 32.9904 24.3832 32.6528C24.3605 32.3715 24.213 32.4053 23.9861 32.4728ZM26.1079 35.8145C27.5489 35.9383 29.0012 35.9608 30.4422 35.7245C31.2592 35.5895 32.0648 35.387 32.791 34.9482C33.6873 34.4081 33.7554 33.6317 32.9612 32.9454C32.8364 32.8328 32.7002 32.7316 32.5527 32.6416C31.7017 32.1015 31.5996 32.1577 31.5429 33.1366C31.5088 33.6092 31.3727 34.2056 30.8507 34.1155C30.0565 33.9693 29.6707 34.3968 29.2168 34.8469C28.9672 35.0944 28.5928 35.1957 28.2637 35.3082C27.5602 35.5558 26.8341 35.657 26.1079 35.8145ZM29.2395 32.7766C29.1828 31.7414 29.1828 31.7414 28.2978 31.6739C28.0368 31.6514 27.7758 31.6177 27.5149 31.6177C26.5164 31.6289 26.0285 31.7077 25.7562 31.8989C26.9816 31.8989 28.1049 32.2477 29.2395 32.7766ZM30.6578 29.9186C30.4649 30.0762 29.943 29.7386 29.8863 30.2562C29.8636 30.4137 29.9203 30.8188 30.3401 30.7288C30.6805 30.65 31.123 30.7175 31.0777 30.1324C31.0663 29.8286 30.9302 29.8511 30.6578 29.9186Z" fill="white"/>
<path d="M34.221 24.8212C34.6749 25.2601 35.072 25.6651 35.6734 25.7214C36.4449 25.8001 37.103 25.5639 37.5455 24.9113C37.8519 24.4612 38.1015 24.2812 38.4419 24.855C38.544 25.0238 38.6802 25.1025 38.9185 25.0013C39.5085 24.7425 40.0872 24.9 40.3935 25.4851C41.2785 27.1841 42.3224 28.7819 43.3323 30.4021C43.6273 30.8859 43.423 31.3248 43.1961 31.7186C43.0372 31.9999 42.8784 31.6848 42.7763 31.5836C42.1976 30.9422 41.6303 30.2896 41.0516 29.6483C40.8928 29.4682 40.7679 29.2657 40.4956 29.1419C40.4956 29.7608 40.4616 30.3459 40.507 30.931C40.5524 31.4373 40.2006 31.5723 39.8716 31.7411C39.6106 31.8761 39.6106 31.6398 39.5879 31.4823C39.4291 30.1883 39.2816 28.8831 39.1227 27.5892C39.1114 27.5104 39.1114 27.4429 39.1114 27.3641C38.9752 26.0364 38.9071 25.9914 37.6023 26.374C37.364 26.4415 37.1825 26.6103 37.1257 26.8128C37.069 27.0153 37.3073 27.1391 37.4661 27.2066C38.4987 27.6567 38.7369 28.3881 38.3398 29.412C38.1583 29.8733 38.1129 30.3909 37.9654 31.021C37.7271 30.2671 37.6931 29.637 37.6817 29.0069C37.659 28.3655 37.2165 28.0618 36.8194 27.7017C36.6832 27.5667 36.5357 27.6567 36.4336 27.7805C36.2294 28.0392 36.0478 28.3093 36.2407 28.6468C36.3655 28.8606 36.5357 29.0407 36.6719 29.2432C36.7967 29.4232 36.8875 29.6257 36.9442 29.862C36.2407 29.5807 35.662 29.1194 35.0607 28.7031C34.9018 28.5906 35.0266 28.4668 35.0947 28.3656C35.3103 28.0843 35.5259 27.7917 35.7641 27.5329C35.957 27.3191 35.9343 27.1504 35.7188 26.9703C35.4918 26.7903 34.482 26.6328 34.2551 26.7791C34.0168 26.9253 34.1529 27.1504 34.187 27.3304C34.4593 28.6806 34.7543 30.0421 34.7316 31.4373C34.7203 31.7186 34.7316 31.9886 34.7316 32.2924C34.187 32.2362 34.0168 31.9661 34.0281 31.4935C34.0508 30.8634 34.0168 30.2333 33.7558 29.5582C33.5743 30.1771 33.4041 30.7059 33.2793 31.2348C33.1885 31.6286 32.9729 31.6623 32.6212 31.5723C32.2694 31.4823 32.0312 31.3698 32.1219 30.9422C32.2127 30.4809 32.2808 30.0196 32.3035 29.5582C32.3489 28.8156 32.3829 28.073 32.224 27.3191C32.0652 26.5428 32.6552 25.8902 33.4381 25.9352C33.6877 25.9464 33.8239 25.8789 33.9033 25.6426C33.9941 25.3838 34.1076 25.1363 34.221 24.8212Z" fill="white"/>
<path d="M42.1411 34.0591C41.9595 34.4417 42.2432 34.6442 42.4134 34.8693C42.9807 35.6456 43.4573 36.467 43.809 37.3559C43.9792 37.7722 43.9111 38.1098 43.5707 38.4136C42.6857 39.2349 41.7326 39.9663 40.6774 40.5739C40.3143 40.7764 40.1214 40.7764 40.042 40.3039C39.6448 38.0648 39.0889 35.8819 37.9315 33.8904C37.8181 33.6991 37.8521 33.5866 38.045 33.4965C39.2364 32.9902 40.3029 32.2813 41.2447 31.415C41.4489 31.2237 41.6078 31.2912 41.778 31.4487C42.9921 32.5739 43.9906 33.8453 44.6827 35.3531C44.8756 35.7581 44.6487 36.287 44.2515 36.467C44.0246 36.5683 43.9906 36.377 43.9225 36.2645C43.5027 35.6906 43.0942 35.1055 42.6744 34.5204C42.5382 34.3517 42.3907 34.1604 42.1411 34.0591Z" fill="white"/>
<path d="M33.6876 16.99C33.6762 17.0238 33.6876 17.08 33.6649 17.0913C32.6891 17.8677 33.3018 18.7453 33.506 19.5892C33.5741 19.8592 33.8237 19.8817 34.0507 19.9042C34.8109 19.983 35.503 19.7692 36.1951 19.4992C36.3767 19.4204 36.6603 19.1391 36.8305 19.4992C37.0121 19.8817 36.649 19.9942 36.4107 20.0955C35.6505 20.4331 34.8336 20.5118 34.028 20.4218C33.5401 20.3655 33.5287 20.5793 33.5968 20.9169C33.801 21.8958 34.1755 22.8184 34.7882 23.6286C35.3895 24.4274 36.3086 24.4049 36.91 23.5835C37.2844 23.066 37.4206 22.4696 37.4773 21.8395C37.5 21.592 37.4206 21.3107 37.8631 21.2207C38.1808 21.1644 37.9538 20.7706 37.9765 20.5343C37.9879 20.4331 37.9652 20.3205 37.9425 20.073C38.3396 20.6018 38.3623 21.0744 38.3396 21.547C38.3396 21.6145 38.3056 21.727 38.2602 21.7383C37.6361 21.907 37.8063 22.4246 37.7383 22.8409C37.6929 23.111 37.6361 23.3923 37.534 23.6511C37.2957 24.3149 36.7738 24.675 36.1157 24.81C35.4576 24.945 34.9811 24.6075 34.6066 24.1349C33.8464 23.1672 33.4606 22.0421 33.1543 20.8719C32.9614 20.163 32.8139 19.4542 32.6323 18.7453C32.4962 18.2165 32.3714 18.1715 32.0423 18.5653C31.6565 19.0266 31.3275 19.0041 30.919 18.6553C30.7602 18.5203 30.5786 18.419 30.4084 18.3065C29.5574 17.7326 29.5574 17.7326 29.8525 16.72C29.9092 16.5399 29.9886 16.3712 30.0113 16.1799C30.0907 15.6398 30.295 15.4035 30.919 15.5723C31.3842 15.7073 31.7473 15.3248 31.9969 14.976C32.3941 14.4246 32.8025 14.1546 33.4833 14.5596C33.8124 14.7509 34.1528 14.5596 34.4024 14.3121C34.8903 13.817 35.4122 13.7045 36.0022 14.1433C36.615 14.5934 37.2504 14.5821 37.9085 14.2446C38.2942 14.0421 38.6233 14.0871 38.8162 14.5371C38.8843 14.7059 39.0204 14.8522 39.1225 15.0097C39.9281 16.2362 39.9281 16.2362 38.8843 17.2488C38.6687 17.4626 38.4871 17.5639 38.1921 17.4176C37.8858 17.2601 37.7836 17.4063 37.761 17.6876C37.7156 18.2277 37.6815 18.7678 37.6248 19.4542C37.3184 18.3965 37.1482 17.4738 37.3411 16.5174C37.4092 16.1686 37.5454 16.1124 37.8177 16.3937C37.9652 16.5512 38.1013 16.945 38.4304 16.6187C38.6914 16.3487 39.1225 16.1236 38.7594 15.5948C38.2375 14.8297 38.2602 14.7847 37.3865 15.0885C36.8305 15.2798 36.3653 15.2685 35.9342 14.8522C35.5938 14.5259 35.2647 14.5371 34.8903 14.8409C34.4705 15.1785 34.0847 15.5723 33.5514 15.8311C33.4833 15.5948 33.7216 15.2685 33.2791 15.1785C32.9047 15.0997 32.6323 15.0997 32.4168 15.4485C32.3146 15.6061 32.1444 15.7186 32.0537 15.8761C31.8494 16.2249 31.5771 16.3599 31.1686 16.3037C30.4879 16.2024 30.6354 16.8437 30.4311 17.17C30.2269 17.4963 30.5673 17.5526 30.7261 17.7101C31.2481 18.2052 31.7246 18.1039 32.2693 17.6989C32.6777 17.3838 33.1202 17.0463 33.6876 16.99Z" fill="white"/>
<path d="M37.659 38.0086C36.2066 37.0747 36.0705 35.702 37.2505 34.6218C37.4434 34.4418 37.5455 34.453 37.659 34.6893C37.8519 35.0944 38.0334 35.4544 37.8405 35.9495C37.5909 36.5684 37.693 37.266 37.659 38.0086Z" fill="white"/>
<path d="M23.9295 26.4077C23.6345 27.5216 24.2926 28.163 25.0074 28.8156C25.6769 29.4344 25.7109 29.8395 25.2571 30.6384C25.1436 29.817 24.667 29.3557 24.1111 28.9281C23.0218 28.118 22.9651 27.5104 23.9295 26.4077Z" fill="white"/>
<path d="M36.4559 18.5993C36.1836 18.1718 36.1722 17.6767 36.0928 17.2041C36.0361 16.8103 35.8659 16.7991 35.639 17.0354C35.1397 17.5417 34.8901 17.1141 34.561 16.7653C35.1737 17.0466 35.5595 16.7428 35.934 16.3602C36.1382 16.1465 36.3651 16.1127 36.4219 16.5178C36.5013 17.0354 36.6148 17.5417 36.6828 18.0593C36.7169 18.2505 36.6715 18.4531 36.4559 18.5993Z" fill="white"/>
<path d="M22.7044 27.8145C22.5001 28.5121 22.8973 28.8834 23.3057 29.2434C23.6575 29.5472 23.8277 29.9073 23.5667 30.5599C23.4078 29.8173 22.9086 29.5247 22.4888 29.1422C22.069 28.7821 22.137 28.332 22.7044 27.8145Z" fill="white"/>
<path d="M25.359 26.813C25.2683 27.5781 25.654 27.9944 26.1419 28.3882C26.4369 28.6245 26.4483 29.0071 26.2667 29.4346C26.0739 28.9058 25.7335 28.5795 25.3363 28.2757C24.7123 27.8031 24.7123 27.5556 25.359 26.813Z" fill="white"/>
<path d="M36.377 32.4612C36.3316 32.6637 36.2409 32.8213 36.0139 32.81C35.7643 32.7988 35.5714 32.6863 35.5941 32.405C35.6054 32.2024 35.7303 32.0562 35.9458 32.0562C36.2068 32.0562 36.3316 32.2249 36.377 32.4612Z" fill="white"/>
<path d="M35.7073 30.3687C35.9456 30.4024 36.1158 30.5149 36.1272 30.7512C36.1385 30.965 35.9683 31.0775 35.7641 31.1C35.5598 31.1225 35.3896 31.055 35.3783 30.8075C35.3669 30.5712 35.4691 30.4249 35.7073 30.3687Z" fill="white"/>
<path d="M33.688 16.9904C33.688 16.9791 33.6994 16.9566 33.6994 16.9453C33.6994 16.9566 33.688 16.9679 33.688 16.9904Z" fill="white"/>
<path d="M58.8653 55.2798C58.8426 55.2686 58.8313 55.2573 58.8086 55.2461C58.8199 55.2461 58.8313 55.2461 58.8313 55.2461C58.854 55.2573 58.854 55.2686 58.8653 55.2798C58.8653 55.2798 58.854 55.2911 58.8653 55.2798Z" fill="white"/>
<path d="M53.9639 61.7833C53.9866 61.772 53.9979 61.7608 54.0206 61.7383C54.0093 61.7608 53.9979 61.7833 53.9866 61.7945C53.9866 61.8058 53.9639 61.7833 53.9639 61.7833Z" fill="white"/>
<path d="M23.896 33.958C23.669 33.958 23.4534 33.8793 23.4648 33.6767C23.4761 33.4292 23.7371 33.3954 23.9527 33.4179C24.1342 33.4292 24.3838 33.4517 24.3612 33.688C24.3385 33.9243 24.0888 33.9468 23.896 33.958Z" fill="white"/>
<path d="M27.3565 33.6538C27.5267 33.6988 27.799 33.6988 27.7877 33.9239C27.7877 34.1826 27.5267 34.1939 27.3225 34.1826C27.1182 34.1826 26.8459 34.1601 26.8573 33.9126C26.8686 33.6876 27.1636 33.6988 27.3565 33.6538Z" fill="white"/>
<path d="M53.1928 58.0928C53.068 57.9803 52.9432 57.9578 52.7843 58.0253C52.251 58.2841 51.7518 58.5766 51.4454 59.1054C51.2752 59.3867 51.1731 59.6905 51.3433 60.0056C51.5249 60.3206 51.8426 60.3769 52.183 60.3656C52.9091 60.3431 53.5218 60.0281 54.1346 59.6793C54.3048 59.578 54.3728 59.4542 54.248 59.2742C53.9303 58.8354 53.5672 58.4528 53.1928 58.0928Z" fill="white"/>
<path d="M57.9353 55.2461H57.9126C57.924 55.2574 57.9353 55.2574 57.9581 55.2686C57.9467 55.2686 57.9353 55.2574 57.9353 55.2461Z" fill="white"/>
<path d="M21.5587 59.1732C21.0367 58.8244 20.5942 58.3181 19.9134 58.2505C19.3234 58.183 18.9376 58.4868 18.949 58.9932C18.9603 59.612 19.9588 60.8385 20.5829 61.0185C20.7417 61.0635 20.8325 61.0297 20.9006 60.8835C21.1275 60.4109 21.3544 59.9496 21.5927 59.477C21.6381 59.3757 21.6721 59.252 21.5587 59.1732Z" fill="white"/>
<path d="M65.0386 21.8286C64.755 21.8624 64.5394 22.0086 64.5167 22.3349C64.4827 22.6725 64.5054 22.9988 64.6075 23.3251C64.9138 24.3715 64.9138 24.3715 65.7989 23.7527C66.0485 23.5726 66.3775 23.4714 66.2073 23.0326C65.9577 22.3687 65.4925 21.8286 65.0386 21.8286Z" fill="white"/>
<path d="M36.3088 0C16.2595 0 0 16.1238 0 36.0056C0 55.8875 16.2595 72.0113 36.3088 72.0113C56.358 72.0113 72.6175 55.8875 72.6175 36.0056C72.6175 16.1238 56.358 0 36.3088 0ZM58.1054 12.3769C58.5706 12.1069 58.9904 12.2419 59.1152 12.602C59.2514 12.9733 59.0244 13.3671 58.5706 13.5696C57.6175 13.9972 57.0501 14.8186 56.4715 15.6287C56.2786 15.8987 56.4488 15.9887 56.7097 16C57.2317 16.0225 57.7082 15.8537 58.1961 15.685C58.9223 15.4262 59.6485 15.1336 60.386 14.9311C60.8853 14.7961 61.5207 14.616 61.8384 15.1449C62.1788 15.7187 61.5887 16.0563 61.237 16.3826C60.6016 17.0014 59.9321 17.5752 59.2854 18.1716C59.0585 18.3741 58.8769 18.5879 59.1039 18.9367C59.2967 19.2293 59.1492 19.4993 58.8542 19.6343C58.4458 19.8256 57.9692 20.0056 57.5834 19.6568C57.1863 19.2968 57.2317 18.8129 57.504 18.3741C57.8217 17.8678 58.1961 17.3952 58.6727 16.8439C57.8217 17.0464 57.1523 17.384 56.392 17.3502C55.3368 17.3052 54.7241 16.5288 55.1099 15.5612C55.6999 14.1435 56.7892 13.1421 58.1054 12.3769ZM60.2725 36.0056C60.2725 49.1252 49.5388 59.7693 36.3088 59.7693C23.0788 59.7693 12.345 49.1252 12.345 36.0056C12.345 22.8861 23.0674 12.2419 36.3088 12.2419C49.5388 12.2419 60.2725 22.8748 60.2725 36.0056ZM48.7899 11.6568C49.448 10.4979 50.1969 9.40647 51.184 8.49508C51.5131 8.19128 51.8875 8.13502 52.1711 8.50633C52.4321 8.85513 52.4094 9.24895 52.0463 9.55274C51.7286 9.81153 51.218 10.1266 51.3542 10.4754C51.5131 10.8917 52.1258 10.7342 52.5456 10.7229C53.1356 10.7117 53.805 10.6442 54.0206 10.0141C54.2362 9.37271 53.6235 9.03516 53.2037 8.67511C52.9768 8.48383 52.6931 8.36006 52.4435 8.18003C51.9896 7.84248 51.5471 7.80872 51.1273 8.23629C50.8663 8.50633 50.5486 8.49508 50.333 8.24754C50.1288 8 50.0494 7.6512 50.3444 7.3924C50.9344 6.88608 51.5811 6.52602 52.3981 6.78481C53.6235 7.17862 54.5539 7.93249 55.1212 9.08017C55.6432 10.1378 55.2801 11.1055 54.2022 11.5893C53.6348 11.8481 53.0335 12.0169 52.3981 11.9719C51.8421 12.0056 51.3088 11.8931 50.7982 11.6906C50.4578 11.5556 50.2649 11.6343 50.1288 11.9494C50.0267 12.1857 49.9019 12.4219 49.777 12.647C49.6522 12.872 49.482 13.0408 49.187 12.962C48.9147 12.8833 48.7218 12.7257 48.6651 12.4332C48.6084 12.1519 48.6537 11.8819 48.7899 11.6568ZM42.4699 5.18706C42.7082 5.02954 42.8784 4.89451 42.8557 4.57947C42.8443 4.30942 42.9805 4.10689 43.2755 4.07314C44.6484 3.92686 46.0214 3.90436 47.3489 4.34318C47.6779 4.4557 48.0978 4.51195 48.007 5.01828C47.9276 5.44585 47.4283 5.71589 46.9404 5.58087C46.305 5.40084 45.6583 5.29958 45.0002 5.20956C44.5009 5.14205 44.0357 5.28833 43.5592 5.4121C43.2528 5.49086 43.3663 5.72715 43.2982 5.89592C43.2074 6.1097 43.3776 6.16596 43.5138 6.19972C44.2059 6.4135 44.8867 6.7173 45.6356 6.7173C46.0214 6.7173 46.3731 6.90858 46.6681 7.12236C46.9404 7.32489 46.9404 7.60619 46.6794 7.84248C46.3504 8.13502 45.976 8.27004 45.5335 8.14627C44.7165 7.93249 43.8996 7.70745 43.0826 7.49367C42.8897 7.44866 42.6514 7.33615 42.5039 7.52743C42.3451 7.72996 42.3791 7.98875 42.4812 8.22503C42.6741 8.66385 43.0486 8.91139 43.4684 9.10267C44.0584 9.37271 44.6825 9.50774 45.2952 9.47398C45.5108 9.47398 45.681 9.47398 45.8512 9.47398C46.1802 9.47398 46.4639 9.55274 46.5319 9.92405C46.6 10.2729 46.3844 10.4754 46.1008 10.6329C45.5335 10.9255 44.9207 10.8692 44.3307 10.7792C43.7521 10.6892 43.1961 10.4979 42.6741 10.2278C40.7566 9.19269 40.6318 6.37975 42.4699 5.18706ZM30.8511 3.72433C30.9192 3.25176 30.9986 2.80169 31.305 2.41913C31.634 1.99156 32.1106 2.05907 32.3148 2.55415C32.519 3.03797 32.3942 3.51055 32.2354 3.97187C31.7702 5.28833 32.0425 6.59353 32.3488 7.88748C32.4623 8.36006 32.7687 8.40506 33.0637 7.98875C33.7558 7.0436 34.3345 6.04219 34.3799 4.827C34.3912 4.4557 34.3685 4.07314 34.3912 3.70183C34.4026 3.47679 34.4366 3.25176 34.5274 3.04923C34.6635 2.70042 34.9472 2.49789 35.3216 2.5429C35.7187 2.57665 35.8436 2.91421 35.8322 3.24051C35.8095 4.02813 35.7301 4.8045 35.6961 5.59212C35.662 6.22222 35.696 6.85232 35.957 7.44866C36.252 7.32489 36.3541 7.08861 36.513 6.90858C36.774 6.60478 37.0349 6.31224 37.3753 6.09845C37.954 5.7384 38.4759 5.90717 38.544 6.57103C38.6575 7.76371 38.6802 8.96765 38.4306 10.1491C38.3738 10.3966 38.249 10.6104 37.9313 10.5879C37.625 10.5654 37.3073 10.5204 37.2165 10.1603C37.1597 9.92405 37.1257 9.68776 37.1711 9.44023C37.2278 9.09142 37.2278 8.74262 37.2505 8.3038C36.7286 8.6526 36.3428 9.05767 35.7414 8.99015C35.038 8.91139 35.072 8.27004 34.7997 7.79747C34.4026 8.09001 34.2324 8.54008 33.9373 8.87764C33.5402 9.33896 33.1204 9.75527 32.4623 9.64276C31.7702 9.53024 31.4525 8.99015 31.2028 8.39381C30.9192 7.72996 31.01 7.03235 30.9646 6.34599C30.8624 5.47961 30.7149 4.60197 30.8511 3.72433ZM19.584 6.391C19.6748 6.16596 19.7088 5.88467 20.0266 5.88467C20.3102 5.87342 20.5371 6.01969 20.6733 6.26723C20.9002 6.64979 20.9456 7.07736 20.9797 7.50492C21.0818 8.78762 21.6378 9.9128 22.3072 10.9817C22.432 11.173 22.5795 11.3868 22.8291 11.3643C23.1014 11.3418 23.1355 11.0492 23.1922 10.8467C23.5553 9.62025 23.7028 8.39381 23.1355 7.17862C22.9766 6.81857 22.8632 6.44726 22.8064 6.05345C22.7497 5.58087 22.9313 5.20956 23.3965 5.08579C23.8617 4.96203 24.0205 5.37834 24.134 5.70464C24.4063 6.50352 24.6219 7.31364 24.8828 8.11252C25.019 8.54008 25.2119 8.94515 25.5069 9.3052C25.6771 9.50774 25.7906 9.51899 25.8813 9.23769C26.0402 8.79887 26.1877 8.3488 26.4033 7.94374C26.7891 7.21238 27.5039 7.21238 27.8783 7.94374C28.3776 8.90014 28.6272 9.9353 28.8882 10.9705C28.9562 11.2518 28.8995 11.5556 28.5137 11.5893C28.1053 11.6343 27.6968 11.6681 27.572 11.1392C27.4698 10.7117 27.4585 10.2504 27.1635 9.82279C26.2444 11.308 25.9721 11.353 24.6446 10.2729C24.4857 10.7792 24.3496 11.2743 24.168 11.7581C23.6915 12.9395 22.5114 13.2096 21.7285 12.2082C20.5825 10.7454 19.9358 9.02391 19.516 7.22363C19.4592 6.96484 19.4819 6.67229 19.584 6.391ZM11.5167 12.8158C11.7777 12.692 12.0046 12.7707 12.1861 12.9508C12.5038 13.2546 12.7421 13.6034 12.8783 14.0309C13.2981 15.3812 14.376 16.2475 15.3518 17.1702C15.6808 17.4852 16.0099 17.3052 15.9985 16.8214C15.9872 15.4937 15.817 14.211 14.8752 13.1533C14.5349 12.7707 14.1945 12.3882 14.1718 11.8481C14.1604 11.5105 14.2171 11.1955 14.5802 11.0717C14.9206 10.9592 15.1703 11.1392 15.3518 11.4093C15.8624 12.1519 16.3616 12.8945 16.8836 13.6371C17.1105 13.9634 17.3828 14.2447 17.7005 14.4923C17.9615 14.6948 18.075 14.6385 18.0863 14.2897C18.0976 13.8622 18.143 13.4346 18.2111 13.007C18.2452 12.7595 18.3359 12.5232 18.665 12.512C18.9713 12.5007 19.0394 12.7482 19.0848 12.9508C19.2096 13.5359 19.4479 14.0872 19.4138 14.706C19.3571 15.955 18.5629 16.3826 17.4963 15.7525C17.4396 15.7187 17.3715 15.6962 17.224 15.6399C17.224 16.1575 17.2353 16.6188 17.224 17.0689C17.1899 18.4754 16.1007 19.0605 14.8866 18.3404C14.8185 18.3066 14.7504 18.2616 14.6937 18.2166C13.4569 17.0352 12.2429 15.8312 11.4486 14.301C11.3011 14.0197 11.199 13.7159 11.2103 13.3896C11.233 13.1308 11.2671 12.9283 11.5167 12.8158ZM6.45615 23.7637C6.41077 24 6.28595 24.225 6.17249 24.4276C6.01364 24.7089 5.78671 24.8889 5.43497 24.7764C5.07188 24.6526 4.92438 24.4051 4.95842 24.0338C5.02649 23.7975 5.08323 23.5612 5.16265 23.3361C5.3215 22.8861 5.54843 22.481 5.16265 21.9972C4.91303 21.6821 5.19669 21.2208 5.61651 21.1758C5.93421 21.1421 5.95691 20.962 6.05902 20.737C6.4675 19.8368 6.92136 18.9592 7.35252 18.0703C7.48868 17.8003 7.5908 17.519 7.72696 17.2602C7.95389 16.8326 8.3964 16.6976 8.82757 16.9114C9.29277 17.1364 9.17931 17.4852 8.98642 17.8115C8.7368 18.2278 8.89565 18.3966 9.23604 18.7117C10.4388 19.8481 12.0273 20.3994 13.3321 21.3783C13.5023 21.5021 13.6839 21.5921 13.8881 21.6484C14.2285 21.7384 14.3873 21.9747 14.3873 22.3122C14.3873 22.6273 14.2739 22.8973 13.9902 23.0661C13.6952 23.2349 13.4002 23.1899 13.1506 22.9761C12.4698 22.3685 11.6415 21.9972 10.8699 21.5134C10.1551 21.0633 9.41758 20.647 8.75949 20.1181C8.16947 19.6456 8.11274 19.6681 7.78369 20.3207C7.61349 20.6582 7.47734 21.007 7.31848 21.3446C7.13694 21.7159 7.22771 21.9634 7.57945 22.1772C9.06584 23.0999 10.5522 24.0225 12.0273 24.9564C12.1861 25.0577 12.3563 25.1364 12.5152 25.2377C12.8329 25.4627 13.0371 25.744 12.8215 26.1491C12.6173 26.5429 12.3109 26.7342 11.8457 26.5992C11.46 26.4866 11.1309 26.2616 10.8132 26.0253C9.63317 25.1589 8.41909 24.3263 7.18233 23.5387C6.79655 23.2461 6.56962 23.1899 6.45615 23.7637ZM14.3079 57.0464C14.0583 57.3277 13.6612 57.4852 13.3321 57.699C12.8442 58.0253 12.3677 58.3629 12.0613 58.8804C11.8571 59.218 11.5621 59.218 11.2217 59.1055C10.8699 58.9817 10.6997 58.7567 10.6657 58.4079C10.6884 58.0928 10.8132 57.834 11.1082 57.6765C11.8684 57.2602 12.4811 56.6414 13.1506 56.1125C13.3548 55.955 13.3548 55.8537 13.1619 55.6849C12.5038 55.0886 11.8684 54.481 11.2217 53.8734C11.1423 53.7947 11.0628 53.6934 10.938 53.7609C10.8019 53.8284 10.8019 53.9634 10.7792 54.0985C10.643 55.0549 10.1211 55.5837 9.202 55.7187C8.40775 55.8312 7.96523 55.2911 8.26024 54.5485C8.45313 54.0534 8.87295 53.7496 9.27008 53.4346C9.72394 53.0633 10.1778 52.7032 10.2345 52.0506C10.2572 51.8256 10.4274 51.6568 10.6657 51.7018C11.4259 51.8368 11.9025 51.3643 12.4017 50.9367C12.8329 50.5654 13.2527 50.1941 13.7746 49.9466C14.115 49.789 14.4327 49.7665 14.705 50.0478C14.9774 50.3404 14.932 50.6667 14.7618 50.9817C14.5349 51.3868 14.1945 51.6681 13.786 51.8931C12.1861 52.7482 12.1521 52.9733 13.5364 54.1097C14.8639 55.1899 14.6029 55.0436 15.7716 54.1547C16.0666 53.9297 16.373 53.7046 16.7474 53.6034C17.1105 53.5134 17.4509 53.5696 17.6438 53.9072C17.8594 54.2672 17.6892 54.5935 17.3942 54.8523C17.224 54.9986 17.0424 55.1336 16.8495 55.2574C16.4864 55.5049 16.078 55.6962 16.3389 56.2925C16.4638 56.5851 16.1687 56.7989 15.9191 56.9564C15.6808 57.1139 15.4199 57.1702 15.1816 56.9676C14.8299 56.6413 14.6143 56.6976 14.3079 57.0464ZM22.693 60.5232C22.171 61.7159 21.2974 62.6948 20.5371 63.73C20.2875 64.0675 20.0833 64.4051 19.9017 64.7876C19.6408 65.339 19.1188 65.5527 18.7104 65.3165C18.3132 65.0802 18.2565 64.5963 18.5855 64.0788C18.7898 63.7637 19.0281 63.4824 19.255 63.1786C19.4138 62.9648 19.4365 62.7961 19.0848 62.8186C18.8919 62.8298 18.7104 62.8186 18.5175 62.8186C18.3246 62.8186 18.143 62.8186 17.9501 62.8186C17.1786 62.8186 16.407 62.7736 15.6468 62.5823C15.4312 62.526 15.2156 62.4473 15.0227 62.3347C14.6937 62.1435 14.5575 61.8397 14.6597 61.4796C14.7618 61.1196 15.0454 60.9733 15.3972 61.007C16.1461 61.0745 16.8949 61.1758 17.6438 61.2433C17.9161 61.2658 18.3019 61.4008 18.4267 61.1646C18.5402 60.9395 18.143 60.782 18.0182 60.5682C17.1786 59.1955 17.1786 58.2278 18.1884 57.3502C18.7898 56.8326 19.4706 56.7426 20.1967 56.9451C21.4562 57.2827 22.4774 58.0141 23.3397 58.9592C23.9184 59.5893 23.8276 59.8931 23.0334 60.1857C22.8632 60.2532 22.7611 60.3657 22.693 60.5232ZM32.1106 66.1491C31.7702 66.8129 31.7475 67.5105 31.668 68.2194C31.5773 68.962 31.3277 69.3446 30.9305 69.3108C30.454 69.2658 29.9547 68.512 30.0228 67.9269C30.1136 67.1617 30.4313 66.4529 30.6242 65.7103C30.7376 65.2827 30.8511 64.8439 30.9419 64.4051C30.9873 64.18 30.9986 63.9437 30.7603 63.7975C30.5334 63.6624 30.3632 63.8312 30.193 63.9437C29.1945 64.5963 28.3095 65.3727 27.5493 66.2954C27.0273 66.9255 26.5621 67.0942 26.165 66.8805C25.7225 66.6554 25.6204 66.1941 25.836 65.3727C26.0288 64.6188 26.3125 63.8987 26.3352 63.0886C25.609 63.7525 24.9509 64.4501 24.7127 65.429C24.5992 65.879 24.5425 66.3516 24.2815 66.7567C24.0772 67.0717 23.7936 67.2855 23.3738 67.1392C22.9653 66.993 22.7157 66.6779 22.8291 66.2729C23.3851 64.2925 24.0205 62.3797 26.1196 61.3671C27.2656 60.8158 28.0372 61.6259 27.9804 62.6048C27.9577 62.9311 27.7081 63.3812 27.9918 63.5387C28.2528 63.685 28.5478 63.2461 28.8314 63.0774C29.3988 62.7398 29.932 62.3572 30.5901 62.211C31.4298 62.0309 32.1333 62.4135 32.2921 63.2574C32.5077 64.2138 32.5871 65.2152 32.1106 66.1491ZM38.4306 67.2405C37.9313 67.4543 37.398 67.4093 37.0122 67.4205C36.547 67.4205 36.2293 67.4318 35.9003 67.4205C35.5712 67.398 35.3103 67.263 35.2649 66.903C35.2081 66.5429 35.3443 66.2504 35.6961 66.1491C36.5811 65.9015 37.4774 65.8903 38.3852 66.0028C38.6575 66.0366 38.8617 66.2278 38.8844 66.5316C38.9071 66.8692 38.7483 67.1055 38.4306 67.2405ZM49.0395 67.5443C48.8466 67.8256 48.5743 67.9381 48.2566 67.8481C47.9049 67.7581 47.6666 67.5668 47.6099 67.1617C47.5077 66.3291 47.156 65.5527 46.9064 64.7539C46.8043 64.4276 46.6114 64.4388 46.3391 64.5738C45.5902 64.9339 44.8981 65.3952 44.0925 65.6428C43.9903 65.6765 43.8655 65.7215 43.8769 65.8678C43.8882 66.0478 44.0471 66.1041 44.1719 66.1716C44.8867 66.5541 45.1363 67.1842 45.125 67.9494C45.1136 68.3769 44.9661 68.7482 44.5236 68.8608C44.0698 68.9845 43.6613 68.8383 43.4003 68.4219C43.1393 68.0281 43.0372 67.5556 42.867 67.128C42.6741 66.6667 42.5493 66.1828 42.0047 65.9466C41.7437 65.834 41.6643 65.5077 41.8345 65.2714C42.1862 64.7764 42.016 64.315 41.8572 63.8312C41.6756 63.3024 41.4941 62.7736 41.3579 62.2222C41.1878 61.5809 41.3579 61.1871 41.7891 61.0408C42.2543 60.8833 42.6288 61.1196 42.9011 61.7384C43.1961 62.4023 43.2755 63.1111 43.389 63.8087C43.4457 64.1913 43.5705 64.27 43.9223 64.135C44.6484 63.8537 45.3292 63.4937 45.9873 63.0999C46.2483 62.9423 46.2823 62.7398 46.2142 62.481C46.1008 62.0309 45.9987 61.5696 45.8738 61.1196C45.8058 60.8608 45.7831 60.602 45.8398 60.3432C45.9079 59.9719 46.1689 59.7356 46.5319 59.6906C46.861 59.6456 47.0539 59.8931 47.156 60.1744C47.3035 60.5795 47.417 60.9958 47.5418 61.4008C47.6099 61.6259 47.6779 61.7947 47.9843 61.7947C48.4722 61.7834 48.6764 62.1097 48.6764 62.616C48.7445 62.9086 48.5403 63.0999 48.2793 63.2461C47.9956 63.3924 48.0297 63.5387 48.1205 63.82C48.3587 64.5176 48.5176 65.2489 48.7105 65.9691C48.7672 66.2053 48.8466 66.4304 49.0282 66.6104C49.3005 66.903 49.2438 67.2293 49.0395 67.5443ZM57.5153 62.8973C57.1863 63.0999 56.8686 63.0211 56.5849 62.7623C56.3013 62.5035 56.1538 62.1547 55.9382 61.8397C55.8247 61.6709 55.7226 61.5021 55.5751 61.2658C55.0985 62.2672 54.656 63.1899 54.2135 64.1125C54.0433 64.4726 53.8277 64.7989 53.5441 65.0802C53.2377 65.3727 52.8746 65.4402 52.5115 65.1927C52.1485 64.9452 52.1825 64.5851 52.3527 64.2363C52.7271 63.4824 53.215 62.7848 53.5327 61.9972C53.5895 61.8622 53.6122 61.7159 53.6462 61.5696C53.6575 61.5471 53.6689 61.5246 53.6802 61.5134C53.6575 61.5246 53.6462 61.5359 53.6235 61.5584C53.0221 61.5809 52.4662 61.8509 51.8421 61.8284C50.3444 61.7947 49.2551 60.1857 49.9699 58.8804C50.7528 57.4402 52.0577 56.5963 53.6462 56.1913C54.2249 56.045 54.4404 56.3038 54.3497 56.8664C54.3156 57.0802 54.3724 57.2602 54.5085 57.384C55.3028 58.1266 55.7793 59.0942 56.3467 60.0056C56.6871 60.5457 57.0274 61.0858 57.504 61.5246C57.6402 61.6484 57.7423 61.8284 57.799 61.9972C57.9011 62.346 57.8557 62.6835 57.5153 62.8973ZM65.4692 53.2996C65.3785 53.6709 64.7884 53.9072 64.1984 53.8059C63.5517 53.6934 63.0751 53.2996 62.6213 52.8608C62.0539 52.3094 61.4526 51.8031 60.681 51.5443C60.2725 51.4093 60.0797 51.4205 60.1704 51.9494C60.3406 52.9733 60.5902 53.9634 61.1235 54.8636C61.3164 55.1899 61.4526 55.5387 61.6001 55.8762C61.7703 56.27 61.6909 56.6076 61.3618 56.8889C61.0214 57.1702 60.6583 57.1477 60.3179 56.9001C59.6712 56.4388 59.0471 55.9662 58.4004 55.5049C58.2642 55.4149 58.1507 55.2799 57.9579 55.2911C58.1848 56.315 58.7635 57.1139 59.6031 57.7215C59.9321 57.9691 60.3066 58.1716 60.5675 58.4979C60.8058 58.8017 60.9193 59.1392 60.6697 59.4768C60.4087 59.8368 60.0456 59.8594 59.6598 59.7018C58.0486 59.0717 56.2559 56.4613 56.2672 54.7736C56.2786 53.5696 56.8232 53.1758 57.9692 53.5921C58.3209 53.7159 58.6613 53.8847 59.0812 54.0647C58.945 53.4233 58.8202 52.8495 58.7067 52.2757C58.6046 51.7581 58.5706 51.2293 58.7294 50.7229C58.8883 50.2053 59.2514 49.8903 59.8073 49.8903C60.942 49.8903 61.9859 50.2278 62.8028 51.0042C63.3701 51.5443 63.9715 51.9831 64.6977 52.2869C65.1402 52.4669 65.6054 52.692 65.4692 53.2996ZM67.0577 24.6414C66.8762 24.6076 66.7173 24.6301 66.5812 24.7314C65.7869 25.294 64.8906 25.6315 64.0055 26.0028C63.6765 26.1491 63.3701 26.3179 63.0751 26.5316C62.9276 26.6442 62.7461 26.7229 62.5759 26.7792C62.2582 26.8804 61.9745 26.8017 61.8043 26.4979C61.6228 26.1603 61.7362 25.8565 62.0426 25.6765C62.383 25.4627 62.7688 25.294 63.2226 25.0689C62.4738 24.5851 61.8043 24.1463 61.1349 23.6962C60.8853 23.5274 60.647 23.3361 60.4881 23.0774C60.2839 22.7736 60.2385 22.4473 60.5108 22.1547C60.7718 21.8734 61.0895 21.9972 61.3391 22.166C61.8043 22.481 62.2355 22.8411 62.7007 23.1674C62.8595 23.2799 63.0524 23.4937 63.2453 23.3587C63.4042 23.2461 63.2567 23.0098 63.2794 22.8298C63.2907 22.6835 63.2794 22.526 63.2794 22.3797C63.3021 21.6371 63.5176 21.0183 64.3005 20.737C65.1061 20.4444 65.8437 20.5682 66.4223 21.2096C67.1258 21.9859 67.5683 22.9198 67.7839 23.9437C67.8747 24.4613 67.591 24.7426 67.0577 24.6414Z" fill="white"/>
</g>
<defs>
<clipPath id="clip0">
<rect width="203" height="72" fill="white"/>
</clipPath>
</defs>
</svg>
