<svg width="14" height="15" viewBox="0 0 14 15" fill="none" xmlns="http://www.w3.org/2000/svg">
<path d="M6.97674 9.24558V14.6512H1.80319e-07C-0.000216359 13.7992 0.194596 12.9585 0.569511 12.1935C0.944425 11.4285 1.48949 10.7595 2.16294 10.2377C2.83639 9.71591 3.62036 9.35521 4.45476 9.18324C5.28916 9.01127 6.15186 9.0326 6.97674 9.24558ZM5.5814 8.37209C3.2686 8.37209 1.39535 6.49884 1.39535 4.18605C1.39535 1.87326 3.2686 0 5.5814 0C7.89419 0 9.76744 1.87326 9.76744 4.18605C9.76744 6.49884 7.89419 8.37209 5.5814 8.37209ZM11.1628 11.1628H13.2558V12.5581H11.1628V15L7.67442 11.8605L11.1628 8.72093V11.1628Z" fill="#666666"/>
</svg>
