<svg width="260" height="93" viewBox="0 0 260 93" fill="none" xmlns="http://www.w3.org/2000/svg">
<g clip-path="url(#clip0)">
<path d="M46.5037 84.9337C36.2438 84.9337 26.5798 80.937 19.3281 73.6702C12.0764 66.4035 8.06543 56.7678 8.06543 46.5071C8.06543 36.2464 12.0619 26.5816 19.3281 19.3294C26.5943 12.0626 36.2438 8.06592 46.5037 8.06592C56.7636 8.06592 66.4132 12.0626 73.6794 19.3294C80.9456 26.5962 84.942 36.2464 84.942 46.5071C84.942 56.7678 80.9311 66.418 73.6794 73.6848C66.4277 80.9515 56.7636 84.9337 46.5037 84.9337Z" fill="#E4E22C"/>
<path d="M46.5038 16.1322C54.6129 16.1322 62.2425 19.286 67.9828 25.0267C73.7231 30.7675 76.8766 38.383 76.8766 46.5073C76.8766 54.6315 73.7231 62.2471 67.9828 67.9878C62.2425 73.7286 54.6275 76.8823 46.5038 76.8823C38.3802 76.8823 30.7652 73.7286 25.0249 67.9878C19.2846 62.2471 16.131 54.617 16.131 46.5073C16.131 38.3976 19.2846 30.7675 25.0249 25.0267C30.7652 19.286 38.3947 16.1322 46.5038 16.1322ZM46.5038 0C20.825 0 0 20.8265 0 46.5073C0 72.188 20.825 93.0145 46.5038 93.0145C72.1827 93.0145 93.0077 72.188 93.0077 46.5073C93.0077 20.8265 72.1827 0 46.5038 0Z" fill="#CF1C21"/>
<path d="M211.622 40.0253C211.941 39.7783 212.174 39.5457 212.45 39.3568C213.395 38.7173 214.397 38.79 215.255 39.5457C215.996 40.1997 216.17 41.1444 215.633 42.1181C214.862 43.557 213.612 44.3999 212.043 44.6906C211.331 44.8214 211.273 45.1121 211.476 45.6643C211.825 46.6381 212.29 47.67 212.028 48.6873C211.244 51.6812 211.796 54.7478 211.52 57.7562C211.433 58.7154 211.796 59.5002 212.174 60.2996C212.61 61.2152 212.552 61.3751 211.781 62.0291C211.563 62.218 211.331 62.4069 211.084 62.5523C210.473 62.9011 209.921 63.6278 209.078 63.0319C208.09 62.3343 206.913 61.6803 207.131 60.2269C207.669 56.5209 207.305 52.8003 207.523 49.0797C207.567 48.2804 207.538 47.481 207.567 46.6817C207.582 46.2311 207.538 46.0277 206.986 46.2021C202.437 47.6554 197.772 48.3821 192.976 48.1786C192.584 48.1641 192.453 48.2513 192.395 48.6728C192.308 49.3849 192.468 49.8209 193.078 50.3441C195.578 52.5242 196.566 55.3582 196.028 58.6137C195.607 61.1425 193.398 62.4506 190.985 61.6076C189.692 61.1571 189.213 59.9944 189.111 58.7445C188.922 56.1139 188.806 53.4834 188.646 50.8528C188.617 50.4168 188.573 49.9808 188.486 49.5593C188.341 48.8472 187.934 48.3385 187.207 48.135C187.062 48.0914 186.931 48.0333 186.8 47.9752C185.608 47.481 185.478 46.6526 186.437 45.7806C188.675 43.7314 188.529 44.5307 188.486 41.1008C188.442 38.1796 188.413 35.2438 188.37 32.3226C188.37 32.2063 188.37 32.0755 188.37 31.9592C188.37 30.5059 188.995 29.4159 190.012 29.0816C191.044 28.7473 192.381 29.3432 193.165 30.5059C194.095 31.872 194.517 33.4998 193.848 34.9241C192.744 37.2785 193.253 39.7492 192.86 42.1472C192.846 42.2635 192.846 42.3943 192.846 42.5106C192.729 43.9494 192.729 43.9494 194.212 43.9639C198.731 43.993 203.033 42.9466 207.218 41.3333C207.611 41.188 207.698 40.9555 207.698 40.5776C207.727 37.918 207.785 35.2583 207.843 32.5987C207.843 32.2063 207.887 31.8284 207.974 31.4505C208.453 29.3286 210.096 29.1978 211.622 29.692C212.261 29.8955 212.334 30.5059 212.348 31.0727C212.392 33.18 212.261 35.2729 211.985 37.3657C211.854 38.2377 211.738 39.0952 211.622 40.0253Z" fill="#CF1C21"/>
<path d="M127.217 39.9962C127.595 39.7056 127.856 39.4876 128.132 39.3132C129.019 38.7464 129.993 38.819 130.806 39.5312C131.548 40.1706 131.736 41.0717 131.271 42.0309C130.516 43.5424 129.222 44.3999 127.609 44.7051C126.97 44.8359 126.868 45.0684 127.072 45.6353C127.275 46.2311 127.435 46.827 127.595 47.4374C127.726 47.9315 127.798 48.4838 127.609 48.9489C127.042 50.3441 127.231 51.7975 127.188 53.2363C127.144 54.617 127.188 55.9977 127.101 57.3638C127.042 58.4102 127.231 59.3549 127.726 60.285C128.22 61.2297 128.147 61.3896 127.348 62.0581C127.159 62.218 126.97 62.3633 126.766 62.4941C126.054 62.9447 125.415 63.6568 124.456 62.9301C123.409 62.1308 122.363 61.3169 122.77 59.7909C122.988 58.948 122.988 58.1195 123.002 57.2766C123.046 53.774 123.09 50.2714 123.162 46.7689C123.177 46.2021 123.09 46.0713 122.494 46.2602C117.989 47.6845 113.367 48.4112 108.63 48.2077C108.165 48.1932 107.99 48.2949 107.976 48.7745C107.961 49.3413 107.86 49.7918 108.499 50.2278C110.984 51.9719 112.365 56.1575 111.522 59.0642C110.882 61.3315 108.703 62.4796 106.508 61.6221C105.331 61.1571 104.822 60.0961 104.735 58.9189C104.532 56.4918 104.43 54.0502 104.285 51.6085C104.256 51.1435 104.227 50.6929 104.197 50.2278C104.125 49.1378 103.66 48.3966 102.541 48.0333C101.131 47.5682 101.015 46.7253 102.119 45.7225C104.197 43.8331 104.11 44.5016 104.052 41.3624C103.994 38.2668 103.979 35.1711 103.95 32.0755C103.936 30.5204 104.59 29.3868 105.651 29.0816C106.741 28.7764 108.078 29.4449 108.862 30.7093C109.705 32.0609 110.112 33.6742 109.429 34.9967C108.441 36.9151 108.862 38.9062 108.528 40.8392C108.397 41.624 108.441 42.4379 108.354 43.2227C108.281 43.775 108.47 43.9348 109.008 43.9494C111.129 44.0366 113.222 43.8622 115.286 43.4843C117.785 43.0338 120.227 42.3216 122.596 41.406C123.104 41.2171 123.293 40.97 123.293 40.4177C123.308 37.8017 123.38 35.2002 123.438 32.5841C123.453 32.2208 123.467 31.8575 123.54 31.5087C123.976 29.4449 125.429 29.1542 127.13 29.6484C127.856 29.8518 127.929 30.5059 127.929 31.1163C127.958 33.0928 127.842 35.0839 127.595 37.0459C127.478 38.0052 127.362 38.9353 127.217 39.9962Z" fill="#CF1C21"/>
<path d="M170.568 53.5559C170.582 52.0153 170.727 50.6056 170.524 49.2104C170.408 48.3819 170.175 47.5971 169.579 46.9867C168.824 46.2164 167.952 46.2019 167.283 47.0158C165.307 49.4574 163.781 52.1607 162.706 55.111C162.415 55.9103 162.153 56.7096 161.732 57.4509C161.427 57.9741 161.049 58.4537 160.569 58.8315C159.203 59.8779 158.099 59.5582 157.576 57.945C157.038 56.3172 156.98 54.6168 156.922 52.9309C156.878 51.681 156.907 50.4166 156.878 49.1667C156.864 48.4691 156.704 48.411 156.093 48.7453C155.497 49.0795 155.178 49.5882 154.974 50.2132C154.015 53.2361 153.521 56.3172 153.913 59.4855C154.044 60.6046 153.826 61.651 153.201 62.5957C152.562 63.584 151.603 63.5549 150.934 62.6103C150.455 61.9417 150.368 61.186 150.353 60.4157C150.295 58.2357 150.556 56.0702 150.687 53.9047C150.716 53.4687 150.774 53.0327 150.76 52.5967C150.673 49.5156 152.17 47.1757 154.291 45.1991C156.282 43.3533 157.837 43.7167 159.029 46.1438C159.639 47.3791 159.973 48.7307 160.424 50.0242C160.511 50.2568 160.511 50.6346 160.816 50.6637C161.092 50.6782 161.209 50.3294 161.34 50.1114C162.473 48.2802 163.49 46.3908 164.9 44.7486C165.452 44.1091 166.048 43.4987 166.775 43.0481C167.966 42.2924 169.129 42.3069 170.291 43.1353C171.41 43.9347 172.137 45.0392 172.66 46.2746C173.532 48.2947 173.925 50.4312 173.983 52.6112C174.012 53.7303 174.041 54.8348 174.259 55.9248C174.375 56.5498 174.593 57.1166 174.985 57.6398C175.552 58.4246 175.698 59.3257 175.538 60.2704C175.334 61.4766 174.419 61.8836 173.329 61.2732C171.643 60.314 170.757 58.8606 170.669 56.9131C170.597 55.7214 170.524 54.5587 170.568 53.5559Z" fill="#CF1C21"/>
<path d="M241.268 51.9575C241.268 51.0419 241.282 50.1263 241.268 49.1961C241.253 48.4113 241.108 48.3532 240.41 48.7747C239.873 49.0944 239.567 49.5885 239.393 50.1408C238.434 53.1638 237.925 56.2304 238.318 59.4132C238.448 60.5032 238.259 61.5351 237.678 62.4798C237.01 63.5843 236.007 63.5843 235.28 62.5234C234.757 61.7531 234.743 60.8811 234.743 60.0236C234.728 57.5384 235.135 55.0531 235.135 52.5679C235.135 49.6176 236.53 47.3649 238.477 45.3593C238.972 44.8506 239.567 44.4873 240.236 44.2257C241.166 43.8769 241.849 44.0222 242.532 44.7489C243.346 45.6209 243.738 46.7109 244.116 47.8154C244.392 48.6148 244.625 49.4287 244.901 50.228C244.959 50.3879 244.973 50.6495 245.22 50.6495C245.409 50.6495 245.497 50.4606 245.569 50.3152C246.078 49.5013 246.572 48.6584 247.081 47.8445C247.909 46.5074 248.781 45.1994 249.885 44.0658C250.278 43.6734 250.699 43.3101 251.179 43.0049C252.37 42.2636 253.533 42.2782 254.696 43.1066C255.902 43.9786 256.643 45.1849 257.181 46.522C257.951 48.4695 258.343 50.5041 258.372 52.597C258.387 53.6579 258.445 54.7189 258.619 55.7653C258.736 56.4338 258.968 57.0588 259.375 57.6256C259.971 58.454 260.087 59.4132 259.884 60.3869C259.666 61.3898 258.808 61.8112 257.893 61.3171C256.44 60.5177 255.379 59.4132 255.146 57.6401C254.914 55.8525 254.972 54.0794 254.986 52.2918C255.001 51.1872 255.088 50.0681 254.87 48.9636C254.725 48.2224 254.492 47.5102 253.94 46.958C253.184 46.2022 252.298 46.1877 251.644 47.0161C249.667 49.4868 248.112 52.2046 247.052 55.1839C246.703 56.1577 246.383 57.1605 245.729 57.9889C245.497 58.2941 245.22 58.5848 244.93 58.8173C243.593 59.8637 242.459 59.5295 241.951 57.9162C241.34 55.9833 241.369 53.9631 241.268 51.9575Z" fill="#CF1C21"/>
<path d="M228.45 55.2856C226.749 56.6082 225.151 57.858 223.48 59.0062C222.07 59.9799 220.631 60.9101 219.062 61.6222C218.233 62.0001 217.391 62.2181 216.461 61.971C215.167 61.6367 214.775 60.6775 215.501 59.5585C215.836 59.0352 216.315 58.7446 216.853 58.4975C218.437 57.7272 220.094 57.1023 221.634 56.2594C222.564 55.7507 223.48 55.1984 224.206 54.3991C224.395 54.1811 224.642 53.9485 224.497 53.6433C224.366 53.3672 224.046 53.4108 223.785 53.3962C222.84 53.3526 221.896 53.3963 220.98 53.1346C217.071 52.0737 215.065 48.0189 216.853 44.6325C217.928 42.5979 219.759 41.4788 221.997 41.13C224.57 40.7376 227.171 40.9701 229.743 41.2026C230.731 41.2898 231.632 41.7694 232.432 42.3944C232.998 42.8449 233.013 43.2664 232.359 43.5571C230.978 44.1529 230.789 45.0685 231.167 46.4056C231.458 47.4666 231.502 48.6002 231.618 49.7047C231.691 50.3733 231.647 51.0418 231.443 51.7104C231.196 52.4952 231.225 53.3381 231.255 54.152C231.342 56.0268 231.298 57.8871 232.039 59.7038C232.65 61.2298 232.272 62.2326 231.138 63.1192C230.673 63.4825 230.223 63.5552 229.685 63.1918C228.74 62.5524 228.363 61.7239 228.508 60.5903C228.697 58.8608 228.639 57.1459 228.45 55.2856ZM226.851 50.9837C227.098 50.9837 227.331 50.9982 227.578 50.9837C228.653 50.911 228.828 50.7076 228.639 49.6321C228.348 47.8735 228.014 46.115 227.752 44.3564C227.68 43.8913 227.476 43.746 227.055 43.7169C226.226 43.6733 225.412 43.7315 224.599 43.8768C223.073 44.1529 221.561 44.5017 220.297 45.4755C219.149 46.362 219.12 47.3939 220.137 48.3967C222.012 50.2134 224.279 50.9837 226.851 50.9837Z" fill="#CF1C21"/>
<path d="M142.04 40.97C143.377 41.1735 144.976 40.8537 146.473 41.5223C147.025 41.7693 147.592 42.0019 148.057 42.3943C148.565 42.8303 148.595 43.2517 148.028 43.4697C146.4 44.0947 146.429 45.2283 146.792 46.6381C147.054 47.7135 147.098 48.8326 147.214 49.9372C147.272 50.4894 147.228 51.0417 147.04 51.5794C146.88 52.0155 146.851 52.4805 146.851 52.9311C146.88 55.2419 146.778 57.5382 147.65 59.7763C148.246 61.2733 147.839 62.2325 146.676 63.1045C146.226 63.4533 145.79 63.4969 145.281 63.1627C144.395 62.5668 143.959 61.7965 144.075 60.721C144.249 59.1805 144.249 57.6399 144.104 56.0848C144.075 55.8668 144.206 55.5326 143.93 55.4308C143.726 55.3582 143.566 55.6198 143.392 55.7506C141.285 57.4074 139.148 59.0351 136.838 60.4304C135.908 60.9972 134.963 61.5204 133.931 61.8837C133.19 62.1453 132.463 62.1308 131.737 61.8546C130.778 61.5058 130.473 60.7501 130.908 59.8345C131.185 59.2677 131.621 58.8607 132.187 58.5991C133.553 57.9742 134.919 57.3638 136.271 56.7098C137.419 56.1575 138.567 55.5616 139.497 54.646C139.788 54.3699 140.238 54.0937 140.064 53.6432C139.904 53.2072 139.395 53.3525 139.018 53.3525C137.579 53.3525 136.169 53.1927 134.905 52.4079C132.856 51.1434 131.65 49.3413 131.78 46.8997C131.926 44.1819 133.626 42.5396 136.009 41.5077C136.954 41.0863 137.971 40.97 138.989 40.9409C139.933 40.9409 140.878 40.97 142.04 40.97ZM142.404 50.9836C142.665 50.9836 142.941 50.9981 143.203 50.9836C144.235 50.9109 144.409 50.7365 144.249 49.7482C143.973 47.917 143.639 46.0858 143.348 44.2546C143.29 43.8476 143.043 43.7459 142.694 43.7313C141.866 43.6732 141.052 43.7313 140.238 43.8767C138.785 44.1238 137.346 44.4726 136.097 45.33C134.701 46.2892 134.643 47.3793 135.864 48.5274C137.695 50.2424 139.919 50.969 142.404 50.9836Z" fill="#CF1C21"/>
<path d="M182.934 50.9544C183.53 50.9398 184.256 50.9689 184.954 51.1724C185.448 51.3177 185.942 51.5212 186.044 52.1025C186.146 52.6693 185.71 52.9891 185.303 53.2507C183.733 54.239 181.975 54.6314 180.173 54.8639C179.403 54.9656 178.632 54.9947 177.862 54.8639C176.67 54.6604 175.987 53.5413 176.336 52.3932C176.482 51.9281 176.801 51.6374 177.266 51.5793C179.112 51.3032 180.943 50.9689 182.934 50.9544Z" fill="#CF1C21"/>
<path d="M33.7444 81.4602C32.8143 82.3176 31.9714 83.2187 31.6663 84.4831C31.5209 85.0645 31.4483 85.6749 31.114 86.1981C30.8525 86.605 30.4891 86.8812 29.9514 86.6922C29.4283 86.5033 29.1086 86.0964 29.2539 85.5732C29.966 83.0153 30.7798 80.5446 33.4683 79.2365C34.9361 78.5244 35.9243 79.5708 35.8516 80.8352C35.8225 81.2567 35.5028 81.838 35.8661 82.0415C36.2004 82.2304 36.5782 81.6636 36.9415 81.4456C37.6682 81.0096 38.3512 80.5155 39.1941 80.3266C40.2695 80.094 41.1705 80.5882 41.374 81.6782C41.6065 82.9426 41.7082 84.2361 41.1124 85.4424C40.6764 86.2998 40.6473 87.2009 40.5456 88.1165C40.4293 89.0757 40.1096 89.5699 39.601 89.5263C38.9906 89.4681 38.3512 88.4944 38.4384 87.7387C38.5547 86.7504 38.9616 85.8348 39.2086 84.8755C39.3539 84.3233 39.4993 83.7565 39.6155 83.1897C39.6737 82.899 39.6882 82.5938 39.383 82.4048C39.0924 82.2304 38.8744 82.4484 38.6564 82.5938C37.3775 83.4367 36.244 84.4395 35.2703 85.6313C34.6018 86.4452 34.006 86.6632 33.4974 86.387C32.9306 86.0964 32.7998 85.5005 33.0759 84.4395C33.3666 83.4513 33.7299 82.5066 33.7444 81.4602Z" fill="#E4E22C"/>
<path d="M74.2313 71.4034C74.522 72.726 75.2631 73.7579 76.3385 74.5572C76.76 74.877 77.2395 75.1386 77.5738 75.56C77.879 75.9524 78.0243 76.3884 77.7046 76.8244C77.3703 77.2895 76.9053 77.3186 76.4112 77.1151C74.3476 76.3012 72.0515 72.9295 72.066 70.7494C72.0805 69.1944 72.7781 68.6857 74.2459 69.2234C74.6964 69.3833 75.1323 69.6013 75.67 69.8338C75.4956 69.0054 75.3358 68.2642 75.1905 67.523C75.0597 66.8545 75.0161 66.1714 75.2195 65.5174C75.423 64.8488 75.888 64.4419 76.6001 64.4419C78.0533 64.4419 79.3903 64.8779 80.4367 65.8807C81.1633 66.5783 81.9335 67.1451 82.8636 67.5375C83.4158 67.7701 84.0116 68.0607 83.8373 68.8456C83.721 69.3252 82.9653 69.6304 82.2096 69.4996C81.3813 69.3542 80.7709 68.8455 80.1896 68.2787C79.463 67.5666 78.6928 66.9126 77.7046 66.5783C77.1814 66.4039 76.9344 66.4185 77.0506 67.1015C77.2686 68.4241 77.5883 69.703 78.2713 70.8657C78.5184 71.2872 78.6928 71.7377 78.8817 72.1737C79.0997 72.6824 78.998 73.1184 78.5765 73.4817C78.1405 73.8451 77.6755 73.816 77.2395 73.4963C76.4112 72.9004 75.6119 72.29 74.7835 71.6941C74.6237 71.5633 74.4638 71.3889 74.2313 71.4034C74.2168 71.4034 74.2168 71.3744 74.2023 71.3598H74.1732C74.1877 71.3744 74.2023 71.3889 74.2313 71.4034Z" fill="#E4E22C"/>
<path d="M6.35056 31.0437C6.43775 30.7385 6.51042 30.4333 6.61214 30.1426C6.8156 29.5612 7.10625 29.038 6.61214 28.4131C6.29243 28.0062 6.65574 27.4103 7.19344 27.3522C7.60035 27.3086 7.62941 27.076 7.76021 26.7853C8.28338 25.6227 8.86467 24.4891 9.41691 23.3409C9.5913 22.9921 9.72209 22.6288 9.89648 22.2945C10.1871 21.7422 10.7539 21.5678 11.3061 21.844C11.902 22.1346 11.7566 22.5852 11.5096 23.0066C11.1899 23.5444 11.3933 23.7624 11.8293 24.1693C13.3697 25.6372 15.4043 26.3493 17.0755 27.6138C17.2935 27.7736 17.526 27.8899 17.7876 27.9626C18.2236 28.0788 18.427 28.384 18.427 28.82C18.427 29.227 18.2817 29.5758 17.9184 29.7938C17.5405 30.0118 17.1627 29.9537 16.843 29.6775C15.971 28.8927 14.9102 28.4131 13.922 27.7882C13.0064 27.2068 12.0618 26.6691 11.2189 25.986C10.4632 25.3756 10.3906 25.4047 9.96914 26.2476C9.75115 26.6836 9.57676 27.1342 9.37331 27.5702C9.14079 28.0498 9.25705 28.3695 9.70756 28.6456C11.6113 29.8374 13.5151 31.0291 15.4043 32.2354C15.6077 32.3662 15.8257 32.468 16.0292 32.5988C16.4361 32.8894 16.6977 33.2528 16.4215 33.776C16.16 34.2846 15.7676 34.5317 15.1718 34.3573C14.6777 34.212 14.2562 33.9213 13.8493 33.6161C12.3379 32.497 10.783 31.4215 9.19892 30.4042C8.66122 30.0554 8.37057 29.9827 8.23978 30.7239C8.18165 31.0291 8.02179 31.3198 7.87647 31.5814C7.67301 31.9447 7.38236 32.1773 6.93186 32.0319C6.51042 31.843 6.32149 31.5233 6.35056 31.0437Z" fill="#E4E22C"/>
<path d="M62.3295 80.8792C62.4167 81.2571 62.1551 81.5042 61.8209 81.6931C61.4576 81.882 61.5012 82.071 61.6174 82.4343C61.9226 83.3354 62.1261 84.2801 62.3731 85.2102C62.4458 85.5154 62.5475 85.8061 62.78 86.0386C63.1433 86.4165 63.0707 86.8234 62.8091 87.2304C62.562 87.5937 62.2132 87.739 61.8063 87.6228C61.3558 87.5065 61.0507 87.2594 60.978 86.7362C60.8472 85.6607 60.3967 84.6579 60.077 83.6261C59.9462 83.2046 59.6991 83.2191 59.3504 83.3935C58.3912 83.8586 57.5047 84.4545 56.4729 84.7742C56.3421 84.8178 56.1823 84.8759 56.1968 85.0649C56.2114 85.2974 56.4148 85.3701 56.5747 85.4573C57.4902 85.9514 57.8099 86.7653 57.7954 87.7536C57.7809 88.3058 57.5919 88.7855 57.0252 88.9308C56.4439 89.0907 55.9207 88.9017 55.5865 88.364C55.2522 87.8553 55.1214 87.2449 54.9034 86.6926C54.6564 86.0967 54.4965 85.4718 53.799 85.1666C53.4647 85.0213 53.363 84.5998 53.581 84.2946C54.0315 83.6551 53.8135 83.0592 53.61 82.4343C53.3775 81.7512 53.145 81.0682 52.9706 80.356C52.7526 79.5276 52.9706 79.0189 53.5228 78.83C54.1187 78.6265 54.5982 78.9317 54.947 79.7311C55.3249 80.5885 55.4266 81.5042 55.5719 82.4052C55.6446 82.8994 55.8044 83.0011 56.2549 82.8267C57.185 82.4634 58.057 81.9983 58.8998 81.4896C59.2341 81.2862 59.2777 81.0246 59.1905 80.6903C59.0452 80.1089 58.9144 79.5131 58.7545 78.9317C58.6673 78.5974 58.6383 78.2632 58.7109 77.9289C58.7981 77.4493 59.1324 77.1441 59.5974 77.086C60.0188 77.0278 60.2659 77.3476 60.3967 77.7109C60.5856 78.2341 60.7309 78.7719 60.8908 79.2951C60.978 79.5857 61.0652 79.8037 61.4576 79.8037C62.0825 79.8183 62.344 80.2252 62.3295 80.8792Z" fill="#E4E22C"/>
<path d="M13.6604 75.4434C13.6895 75.0364 13.8494 74.7021 14.2272 74.4987C15.2009 73.9609 15.9856 73.1616 16.8431 72.4785C17.1046 72.275 17.1046 72.1442 16.8576 71.9262C16.0147 71.156 15.2009 70.3711 14.3725 69.5863C14.2708 69.4846 14.1691 69.3538 14.0092 69.441C13.8348 69.5282 13.8348 69.7026 13.8058 69.877C13.6314 71.1124 12.9629 71.7954 11.7858 71.9698C10.7685 72.1152 10.2017 71.4176 10.5796 70.4583C10.8266 69.8189 11.3643 69.4265 11.873 69.0195C12.4543 68.5399 13.0355 68.0748 13.1082 67.2319C13.1373 66.9412 13.3553 66.7232 13.6604 66.7814C14.6341 66.9558 15.2445 66.3454 15.8839 65.7931C16.4361 65.3135 16.9738 64.8339 17.6423 64.5141C18.0783 64.3106 18.4852 64.2816 18.834 64.6449C19.1828 65.0228 19.1246 65.4443 18.9067 65.8512C18.616 66.3744 18.18 66.7378 17.6569 67.0284C15.6078 68.133 15.5642 68.4236 17.3372 69.8915C19.0375 71.2868 18.7032 71.0978 20.2 69.9497C20.5779 69.659 20.9703 69.3683 21.4498 69.2375C21.9149 69.1213 22.3508 69.1939 22.5979 69.6299C22.874 70.095 22.656 70.5165 22.2782 70.8508C22.0602 71.0397 21.8277 71.2141 21.5806 71.374C21.1156 71.6937 20.5924 71.9408 20.9267 72.711C21.0865 73.0889 20.7087 73.3651 20.389 73.5685C20.0838 73.772 19.7495 73.8447 19.4444 73.5831C18.9939 73.1907 18.7177 73.2633 18.3254 73.7284C18.0056 74.0917 17.497 74.2952 17.0756 74.5713C16.4507 74.9928 15.8403 75.4288 15.4479 76.0974C15.1864 76.5334 14.8085 76.5334 14.3725 76.388C13.922 76.1846 13.704 75.8939 13.6604 75.4434Z" fill="#E4E22C"/>
<path d="M23.0051 81.1406C22.0169 81.1406 21.0287 81.0825 20.055 80.8354C19.7789 80.7628 19.5028 80.661 19.2557 80.5157C18.8343 80.2686 18.6599 79.8762 18.7907 79.4112C18.9215 78.9461 19.2848 78.7571 19.7353 78.8007C20.6944 78.8879 21.6536 79.0187 22.6127 79.1059C22.9615 79.135 23.4556 79.3094 23.6154 79.0042C23.7608 78.7135 23.2521 78.5101 23.0923 78.2339C22.0169 76.4609 22.0169 75.211 23.3103 74.0774C24.0805 73.4088 24.9524 73.2925 25.8825 73.5542C27.4956 73.9902 28.8035 74.9348 29.908 76.1556C30.6491 76.9695 30.5329 77.3619 29.5156 77.7398C29.2831 77.827 29.1668 77.9869 29.0796 78.1758C28.4112 79.7164 27.2922 80.9808 26.3185 82.3179C25.9988 82.7539 25.7372 83.1899 25.5047 83.684C25.1704 84.3961 24.5019 84.6723 23.9788 84.3671C23.4701 84.0619 23.3975 83.4369 23.8189 82.7684C24.0805 82.3615 24.3857 81.9981 24.6763 81.6057C24.8798 81.3296 24.9088 81.1116 24.4583 81.1406C24.2113 81.1552 23.9788 81.1406 23.7317 81.1406C23.4847 81.1406 23.2376 81.1406 23.0051 81.1406ZM24.2694 76.1992C24.2839 76.9986 25.5628 78.5827 26.3621 78.8153C26.5655 78.8734 26.6818 78.8298 26.769 78.6409C27.0596 78.0305 27.3503 77.4346 27.6555 76.8242C27.7281 76.6934 27.7717 76.5335 27.6264 76.4318C26.9579 75.9813 26.3911 75.3272 25.5192 75.24C24.7344 75.1674 24.2549 75.5452 24.2694 76.1992Z" fill="#E4E22C"/>
<path d="M68.6802 79.5128C67.91 79.5418 67.1979 79.8906 66.3986 79.8616C64.4803 79.818 63.0852 77.7397 64.0008 76.0538C65.0035 74.1935 66.6747 73.1035 68.7093 72.5803C69.4504 72.3914 69.7265 72.7256 69.6103 73.4523C69.5667 73.7284 69.6394 73.961 69.8137 74.1208C70.831 75.0801 71.4414 76.3299 72.168 77.5071C72.604 78.2048 73.0399 78.9024 73.6503 79.4692C73.8247 79.629 73.9555 79.8616 74.0282 80.0796C74.1735 80.5301 74.1154 80.9661 73.6939 81.2277C73.2725 81.4893 72.8656 81.3876 72.5022 81.0533C72.1389 80.7191 71.95 80.2685 71.6739 79.8616C71.5286 79.6436 71.3978 79.4256 71.2089 79.1204C70.5985 80.4139 70.0317 81.6056 69.465 82.7974C69.247 83.2624 68.9709 83.6839 68.6076 84.0472C68.2152 84.4251 67.7501 84.5123 67.2851 84.1926C66.8201 83.8728 66.8637 83.4078 67.0816 82.9572C67.5612 81.9835 68.1861 81.0824 68.593 80.0651C68.6657 79.8907 68.6947 79.7017 68.7383 79.5128C68.7529 79.4837 68.7674 79.4546 68.7819 79.4401C68.7383 79.4692 68.7093 79.4982 68.6802 79.5128ZM66.8055 77.9722C67.7356 77.9432 68.5204 77.5362 69.3051 77.0857C69.5231 76.9549 69.6103 76.795 69.4504 76.5625C69.0726 75.9957 68.6075 75.5015 68.128 75.0365C67.9681 74.8911 67.8083 74.8621 67.6048 74.9493C66.9218 75.2835 66.2824 75.6614 65.89 76.3445C65.672 76.7078 65.5412 77.1002 65.7592 77.5071C65.9772 77.9141 66.3841 77.9868 66.8055 77.9722Z" fill="#E4E22C"/>
<path d="M46.0389 9.63597C46.4168 9.4761 46.5476 9.1709 46.751 8.93836C47.0853 8.54596 47.4195 8.16809 47.8555 7.89195C48.5967 7.42688 49.2652 7.64488 49.3524 8.50236C49.4977 10.0429 49.5267 11.598 49.207 13.124C49.1344 13.4438 48.9745 13.7199 48.5676 13.6908C48.1752 13.6618 47.7683 13.6036 47.6521 13.1385C47.5794 12.8333 47.5358 12.5281 47.5939 12.2084C47.6666 11.7579 47.6666 11.3073 47.6957 10.7405C47.0272 11.1911 46.5331 11.7143 45.7628 11.6271C44.8618 11.5253 44.9054 10.6969 44.5566 10.0865C44.048 10.4644 43.83 11.0457 43.4522 11.4817C42.9435 12.0776 42.4058 12.6153 41.5629 12.47C40.6765 12.3247 40.2696 11.6271 39.9498 10.8568C39.5865 9.99931 39.7028 9.09823 39.6447 8.21169C39.572 7.07807 39.3831 5.95899 39.5429 4.82538C39.6301 4.21497 39.7319 3.63363 40.1242 3.13949C40.5457 2.58721 41.156 2.67442 41.4176 3.31389C41.6792 3.93883 41.5193 4.54924 41.3159 5.14511C40.7201 6.84554 41.0688 8.53142 41.4612 10.2028C41.6065 10.8132 41.9989 10.8713 42.3768 10.3336C43.2632 9.11276 44.0044 7.81928 44.0625 6.24966C44.0771 5.77006 44.048 5.27592 44.0771 4.79631C44.0916 4.50564 44.1352 4.21497 44.2515 3.95337C44.4258 3.50283 44.7892 3.24122 45.2687 3.29936C45.7774 3.34296 45.9372 3.77896 45.9227 4.20043C45.8936 5.21778 45.7919 6.22059 45.7483 7.23794C45.6466 8.03728 45.6902 8.85116 46.0389 9.63597Z" fill="#E4E22C"/>
<path d="M34.8053 12.688C33.6282 14.6064 33.2794 14.6645 31.5791 13.2693C31.3757 13.9233 31.2013 14.5628 30.9687 15.1877C30.3584 16.7138 28.847 17.0626 27.8443 15.7691C26.3765 13.8797 25.5481 11.6561 25.0104 9.33074C24.9378 8.99647 24.9523 8.60406 25.0976 8.25526C25.2139 7.96459 25.2575 7.60125 25.6644 7.60125C26.0277 7.58672 26.3184 7.77565 26.4928 8.09539C26.7834 8.58953 26.8415 9.1418 26.8851 9.69408C27.0159 11.3509 27.728 12.8042 28.5854 14.1849C28.7453 14.432 28.9342 14.7081 29.2539 14.6791C29.6027 14.65 29.6463 14.2721 29.719 14.0105C30.184 12.4264 30.3729 10.8422 29.6463 9.27261C29.4428 8.80753 29.2975 8.32793 29.2249 7.81925C29.1522 7.20885 29.3847 6.72924 29.9805 6.56937C30.5764 6.4095 30.7798 6.94724 30.9252 7.36871C31.2739 8.40059 31.55 9.44701 31.8843 10.4789C32.0587 11.0312 32.3057 11.5544 32.6836 12.0194C32.9016 12.281 33.0469 12.2956 33.1631 11.9322C33.3666 11.3654 33.5555 10.7841 33.8316 10.2609C34.3257 9.31621 35.2413 9.31621 35.7209 10.2609C36.3603 11.4962 36.68 12.8333 37.0142 14.1704C37.1014 14.5337 37.0288 14.9261 36.5347 14.9697C36.0115 15.0279 35.4883 15.0715 35.3285 14.3884C35.1977 13.8216 35.1832 13.2257 34.8053 12.688Z" fill="#E4E22C"/>
<path d="M22.0749 20.1727C22.0749 20.8413 22.0894 21.4372 22.0749 22.0185C22.0313 23.8352 20.6362 24.5909 19.0812 23.6608C18.994 23.6172 18.9068 23.5591 18.8341 23.5009C17.2501 21.9749 15.6951 20.4198 14.6779 18.4433C14.4889 18.0799 14.3582 17.6875 14.3727 17.266C14.3727 16.9608 14.4308 16.6847 14.7505 16.5394C15.0848 16.3795 15.3754 16.4812 15.6079 16.7138C16.0149 17.1062 16.32 17.5567 16.4944 18.109C17.0321 19.853 18.4127 20.9721 19.6625 22.1638C20.0839 22.5708 20.5054 22.3382 20.4908 21.7133C20.4763 19.9983 20.2583 18.3415 19.0521 16.9754C18.6162 16.4812 18.1802 15.9871 18.1511 15.2895C18.1366 14.8535 18.2092 14.4465 18.6743 14.2867C19.1103 14.1413 19.43 14.3739 19.6625 14.7227C20.3165 15.6819 20.9559 16.6411 21.6244 17.6003C21.915 18.0218 22.2638 18.3851 22.6707 18.7049C23.005 18.9665 23.1503 18.8938 23.1648 18.4433C23.1793 17.891 23.2375 17.3387 23.3247 16.7864C23.3683 16.4667 23.4845 16.1615 23.906 16.147C24.2983 16.1324 24.3855 16.4522 24.4437 16.7138C24.6035 17.4695 24.9087 18.1817 24.8651 18.981C24.7924 20.5942 23.7752 21.1465 22.4091 20.3326C22.351 20.2745 22.2493 20.2454 22.0749 20.1727Z" fill="#E4E22C"/>
<path d="M58.0137 12.2375C58.2898 12.2375 58.5078 12.2375 58.7258 12.2375C59.1472 12.2375 59.5105 12.3392 59.5977 12.8188C59.6849 13.2694 59.4088 13.531 59.0455 13.7345C58.3188 14.1123 57.5341 14.0397 56.7784 13.9234C56.0373 13.8071 55.3252 13.5601 54.6567 13.2113C52.1862 11.8742 52.0408 8.24079 54.3951 6.70023C54.7003 6.49676 54.9183 6.32236 54.8892 5.91542C54.8747 5.56662 55.0491 5.30501 55.4269 5.26141C57.1853 5.07248 58.9437 5.04341 60.644 5.61022C61.0655 5.75555 61.6032 5.82822 61.4869 6.48223C61.3852 7.0345 60.7458 7.38331 60.1209 7.2089C59.3071 6.97637 58.4787 6.84557 57.6358 6.7293C56.9964 6.6421 56.4006 6.83103 55.7902 6.9909C55.3978 7.09264 55.5432 7.39784 55.456 7.61584C55.3397 7.89198 55.5577 7.96465 55.7321 8.00825C56.6186 8.28439 57.4905 8.67679 58.4496 8.67679C58.9437 8.67679 59.3943 8.92386 59.7721 9.2C60.1209 9.4616 60.1209 9.82494 59.7866 10.1301C59.3652 10.508 58.8856 10.6824 58.3188 10.5225C57.2725 10.2464 56.2262 9.95574 55.1798 9.6796C54.9328 9.62147 54.6276 9.47613 54.4387 9.7232C54.2352 9.98481 54.2788 10.3191 54.4096 10.6243C54.6567 11.1911 55.1362 11.5108 55.6739 11.7579C56.4442 12.1067 57.2289 12.2811 58.0137 12.2375Z" fill="#E4E22C"/>
<path d="M80.96 32.3664C80.0008 31.7414 79.1434 31.1746 78.286 30.5933C77.9663 30.3753 77.6611 30.1282 77.4576 29.7939C77.1961 29.4015 77.1379 28.9801 77.4867 28.6022C77.821 28.2388 78.2279 28.3987 78.5476 28.6167C79.1434 29.0237 79.6957 29.4887 80.2915 29.9102C80.4949 30.0555 80.742 30.3317 80.989 30.1573C81.1925 30.0119 81.0036 29.7067 81.0326 29.4742C81.0472 29.2853 81.0326 29.0818 81.0326 28.8929C81.0617 27.9336 81.3378 27.1343 82.3406 26.771C83.3724 26.3931 84.317 26.553 85.0581 27.3814C85.9592 28.3842 86.5259 29.5905 86.802 30.913C86.9474 31.6106 86.5841 31.974 85.901 31.8432C85.6685 31.7996 85.4651 31.8286 85.2907 31.9594C84.2734 32.6861 83.1253 33.1221 81.9918 33.6017C81.5703 33.7906 81.178 34.0086 80.8001 34.2848C80.6112 34.4301 80.3787 34.5319 80.1607 34.6045C79.7538 34.7353 79.3905 34.6336 79.1725 34.2412C78.94 33.8052 79.0853 33.4128 79.4777 33.1802C79.8991 32.8605 80.3932 32.657 80.96 32.3664ZM83.2997 28.1952C82.9364 28.2388 82.6603 28.4278 82.6312 28.8493C82.5876 29.2853 82.6167 29.7067 82.7475 30.1282C83.1399 31.4798 83.1399 31.4798 84.2734 30.6805C84.5931 30.4479 85.0145 30.3171 84.7966 29.7503C84.4768 28.8929 83.881 28.1952 83.2997 28.1952Z" fill="#E4E22C"/>
<path d="M75.147 21.7567C74.0571 22.0183 73.1997 22.4543 72.226 22.4107C70.8745 22.3526 70.0897 21.3497 70.5838 20.0999C71.325 18.2686 72.7201 16.9606 74.4059 15.9869C75.0017 15.6381 75.5394 15.8125 75.6993 16.2775C75.8736 16.7572 75.583 17.2658 75.0017 17.5274C73.781 18.0797 73.0544 19.1407 72.3132 20.1871C72.0661 20.5359 72.2841 20.6521 72.6184 20.6667C73.2869 20.6957 73.8972 20.4777 74.5221 20.2597C75.4522 19.9255 76.3823 19.5476 77.3269 19.286C77.9663 19.1116 78.7801 18.879 79.187 19.5621C79.623 20.3033 78.8673 20.7393 78.4168 21.1608C77.603 21.9602 76.7456 22.7014 75.9172 23.4716C75.6266 23.7332 75.3941 24.0094 75.6847 24.4599C75.9318 24.8378 75.7428 25.1866 75.365 25.361C74.8418 25.6081 74.2315 25.8406 73.7374 25.3901C73.2287 24.925 73.2869 24.3001 73.6356 23.7332C74.0571 23.0792 74.5367 22.4688 75.147 21.7567Z" fill="#E4E22C"/>
<path d="M67.1252 15.4343C66.4132 15.4779 65.7301 15.3326 65.0762 15.071C64.6402 14.8966 64.3931 14.9983 64.2188 15.4053C64.088 15.7105 63.9281 16.0157 63.7682 16.3063C63.6084 16.597 63.3904 16.815 63.0126 16.7133C62.6638 16.6115 62.4167 16.4081 62.3441 16.0302C62.2714 15.6814 62.3295 15.3471 62.5039 15.0419C63.3468 13.545 64.306 12.1352 65.5703 10.958C65.9917 10.5656 66.4713 10.4929 66.8346 10.9725C67.1688 11.4231 67.1398 11.9318 66.6747 12.3242C66.2678 12.6584 65.6139 13.0654 65.7883 13.5159C65.9917 14.0536 66.7765 13.8502 67.3142 13.8356C68.0699 13.8211 68.9273 13.7339 69.2034 12.92C69.4795 12.0916 68.6947 11.6556 68.157 11.1905C67.8664 10.9435 67.5031 10.7836 67.1834 10.5511C66.6021 10.1151 66.0353 10.0715 65.4976 10.6237C65.1634 10.9725 64.7565 10.958 64.4803 10.6383C64.2188 10.3185 64.117 9.868 64.4949 9.53372C65.2506 8.87972 66.0789 8.41464 67.1252 8.74891C68.6947 9.25759 69.8864 10.2313 70.613 11.7138C71.2815 13.0799 70.8165 14.3298 69.4359 14.9547C68.7093 15.2599 67.9391 15.4925 67.1252 15.4343Z" fill="#E4E22C"/>
<path d="M47.4195 87.0848C46.8236 87.0848 46.4167 87.0993 45.9953 87.0848C45.5738 87.0557 45.2396 86.8813 45.1815 86.4162C45.1088 85.9511 45.2832 85.5733 45.7337 85.4425C46.8672 85.1227 48.0153 85.1082 49.1779 85.2535C49.5267 85.2971 49.7882 85.5442 49.8173 85.9366C49.8318 86.3726 49.6284 86.6633 49.236 86.8377C48.5821 87.1283 47.899 87.0702 47.4195 87.0848Z" fill="#E4E22C"/>
<path d="M48.7854 56.4482C48.2913 58.948 48.146 61.4914 47.9425 64.0057C47.7245 66.6944 47.5356 69.3976 47.3467 72.1008C47.3176 72.5804 47.1287 72.7984 46.6201 72.9002C44.9779 73.2054 43.3067 73.3071 41.6354 73.3071C41.1413 73.3071 40.9815 73.0455 40.8216 72.6676C40.6472 72.2752 40.6763 71.9846 41.0251 71.723C41.1994 71.5922 41.3593 71.4468 41.5046 71.287C42.4783 70.1824 43.5828 69.6301 45.0505 70.4004C45.4865 70.6329 45.6754 70.4585 45.6754 69.9353C45.7045 65.1393 45.1668 60.3868 44.3094 55.678C44.1786 54.9658 43.6264 54.835 43.1468 54.6461C42.551 54.4135 42.4347 54.1374 42.6527 53.527C43.4084 51.3906 43.7862 49.1815 43.7426 46.9142C43.7281 46.4346 43.8153 46.1294 44.3094 45.8824C45.0505 45.519 45.4429 44.865 45.6028 44.0511C45.6464 43.8477 45.5882 43.4843 45.9952 43.6151C46.3875 43.7459 46.9398 43.6006 47.1432 44.0221C47.2449 44.2546 47.0124 44.6325 46.6491 44.7197C46.2858 44.8214 46.1695 45.1411 45.9661 45.3882C44.8616 46.7253 45.036 48.324 44.9634 49.8645C44.9052 50.9255 44.818 51.9864 44.6582 53.0328C44.571 53.5997 44.789 53.8758 45.3412 53.9921C48.3349 54.6315 51.1542 54.181 53.8282 52.7276C54.7146 52.2335 54.7001 52.2335 55.107 53.1636C55.2378 53.4543 55.2233 53.6578 54.9617 53.8467C54.7292 54.0211 54.5112 54.2537 54.2496 54.3409C53.1306 54.7623 52.8981 55.6344 52.7673 56.7098C52.3168 60.1979 51.7645 63.6859 51.2559 67.174C51.1251 68.1332 51.0379 69.0924 50.9071 70.0516C50.849 70.5021 51.0525 70.6329 51.4448 70.5312C51.9099 70.4149 52.3749 70.2841 52.8399 70.1533C53.3776 70.008 53.8427 70.0661 54.2205 70.5021C54.6856 71.0544 55.4413 71.4032 55.3977 72.3043C55.3831 72.7258 55.2523 72.9147 54.8309 72.9583C53.1597 73.1327 51.503 73.0891 49.8463 72.813C49.512 72.7548 49.3522 72.595 49.3667 72.2316C49.3958 71.6212 49.3812 71.0253 49.3667 70.4149C49.3231 66.8688 49.3086 63.3081 49.2359 59.7619C49.1923 58.6573 49.1632 57.5237 48.7854 56.4482Z" fill="#CF1C21"/>
<path d="M37.3046 37.8887C37.2319 37.2201 36.9122 36.6533 36.7087 36.0429C36.5198 35.4325 36.2292 34.8512 36.2582 34.1826C36.578 34.1972 36.5634 34.4297 36.6216 34.5896C36.9413 35.5197 37.2464 36.4644 37.5807 37.3945C37.8132 38.0631 39.2519 38.3247 39.717 37.7869C39.9931 37.4672 39.6588 37.3945 39.4408 37.3219C38.9903 37.191 38.4817 37.38 38.0021 37.162C38.7142 36.7405 40.182 36.8858 40.6761 37.3945C40.865 37.5835 40.865 37.7724 40.7778 37.9904C40.4145 38.8188 40.5598 39.7053 40.5017 40.5628C40.4727 40.9407 40.7052 41.057 41.0104 41.1442C41.7079 41.3622 42.3909 41.5947 43.0594 41.8563C43.3501 41.9726 43.6262 42.1324 43.8878 42.3068C45.2684 43.2515 45.2829 44.4287 43.9023 45.3589C42.3619 46.4053 40.5598 46.7686 38.7724 47.0012C35.706 47.4081 32.6397 47.2918 29.6314 46.4634C28.6432 46.1873 27.6841 45.8675 26.8703 45.2426C25.7513 44.3997 25.7658 43.2225 26.8993 42.4376C28.6287 41.2459 30.6197 40.868 32.6542 40.6936C33.9766 40.5774 35.3136 40.5192 36.6361 40.5628C37.0285 40.5774 37.2174 40.5047 37.1157 40.0396C36.9558 39.3856 37.1011 38.6299 36.4617 38.1212C36.3018 37.9904 36.3454 37.816 36.5053 37.6852C36.6506 37.5689 36.8105 37.5253 36.9267 37.7288C36.9849 37.8015 37.043 37.9032 37.3046 37.8887ZM30.7214 41.9435C30.0965 41.7982 29.646 42.3504 29.0647 42.5248C28.2363 42.7574 27.8294 43.1934 27.9602 43.7747C28.1055 44.4142 28.8612 44.8647 29.6024 44.763C29.6896 44.7485 29.864 44.7775 29.864 44.7921C29.864 45.5187 30.4743 45.199 30.8086 45.3443C31.8113 45.7949 32.8286 45.0101 33.8604 45.3443C33.9621 45.3734 34.1801 45.3879 34.2092 45.199C34.2382 44.9374 34.3836 45.0246 34.5143 45.0537C35.459 45.3153 36.142 44.8211 36.7523 44.2253C37.2319 43.7457 37.1302 43.3242 36.5489 42.9463C36.1565 42.6702 35.6915 42.4958 35.2991 42.2778C34.5434 41.8418 33.7732 41.9435 33.0175 41.8272C32.8722 41.7982 32.6106 41.6819 32.6542 42.0598C32.7123 42.612 32.2328 42.583 31.913 42.6266C31.6079 42.6702 31.2445 42.612 31.23 42.176C31.201 41.8127 31.012 41.8563 30.7214 41.9435ZM33.4389 46.26C35.2846 46.4198 37.1447 46.4489 38.9903 46.1437C40.0367 45.9693 41.0685 45.7077 41.9986 45.1409C43.1466 44.4433 43.2338 43.4405 42.2165 42.5539C42.0567 42.4086 41.8823 42.2778 41.6934 42.1615C40.6034 41.4639 40.4726 41.5366 40.4 42.801C40.3564 43.4114 40.182 44.1817 39.5135 44.0654C38.4962 43.8765 38.0021 44.4287 37.4208 45.0101C37.1011 45.3298 36.6216 45.4606 36.2001 45.6059C35.2991 45.9257 34.369 46.0565 33.4389 46.26ZM37.4499 42.3359C37.3772 40.9988 37.3772 40.9988 36.2437 40.9116C35.9095 40.8826 35.5752 40.839 35.241 40.839C33.9621 40.8535 33.3372 40.9552 32.9884 41.2023C34.5579 41.2023 35.9967 41.6528 37.4499 42.3359ZM39.2665 38.6444C39.0194 38.8479 38.3509 38.4119 38.2782 39.0804C38.2492 39.2839 38.3218 39.8071 38.8595 39.6908C39.2955 39.5891 39.8623 39.6763 39.8042 38.9205C39.7896 38.5281 39.6152 38.5572 39.2665 38.6444Z" fill="#CF1C21"/>
<path d="M43.83 32.0612C44.4113 32.628 44.92 33.1512 45.6902 33.2239C46.6784 33.3256 47.5213 33.0204 48.088 32.1774C48.4804 31.5961 48.8001 31.3636 49.2361 32.1048C49.3669 32.3228 49.5413 32.4245 49.8465 32.2937C50.6022 31.9594 51.3433 32.1629 51.7357 32.9187C52.8692 35.1132 54.2062 37.177 55.4996 39.2698C55.8774 39.8948 55.6159 40.4616 55.3252 40.9702C55.1217 41.3336 54.9183 40.9266 54.7875 40.7958C54.0463 39.9674 53.3197 39.1245 52.5786 38.2961C52.3751 38.0635 52.2153 37.8019 51.8665 37.6421C51.8665 38.4414 51.8229 39.1971 51.881 39.9529C51.9391 40.6069 51.4886 40.7813 51.0672 40.9993C50.7329 41.1737 50.7329 40.8685 50.7039 40.665C50.5004 38.9937 50.3115 37.3078 50.108 35.6364C50.0935 35.5347 50.0935 35.4475 50.0935 35.3458C49.9191 33.6308 49.8319 33.5727 48.1607 34.0668C47.8555 34.154 47.623 34.372 47.5503 34.6336C47.4777 34.8952 47.7829 35.0551 47.9863 35.1423C49.3088 35.7236 49.6139 36.6683 49.1053 37.9909C48.8728 38.5867 48.8147 39.2553 48.6257 40.0692C48.3206 39.0954 48.277 38.2815 48.2624 37.4677C48.2334 36.6392 47.6666 36.2468 47.158 35.7818C46.9836 35.6074 46.7947 35.7236 46.6639 35.8835C46.4023 36.2178 46.1698 36.5666 46.4168 37.0026C46.5767 37.2787 46.7947 37.5113 46.969 37.7729C47.1289 38.0054 47.2452 38.267 47.3178 38.5722C46.4168 38.2089 45.6757 37.613 44.9054 37.0752C44.702 36.9299 44.8618 36.77 44.949 36.6392C45.2251 36.2759 45.5013 35.898 45.8064 35.5638C46.0535 35.2876 46.0244 35.0696 45.7483 34.8371C45.4577 34.6045 44.1643 34.4011 43.8736 34.59C43.5684 34.779 43.7428 35.0696 43.7864 35.3022C44.1352 37.0462 44.5131 38.8047 44.484 40.6069C44.4695 40.9702 44.484 41.319 44.484 41.7114C43.7864 41.6388 43.5684 41.29 43.583 40.6796C43.612 39.8657 43.5684 39.0518 43.2342 38.1798C43.0017 38.9791 42.7837 39.6622 42.6238 40.3453C42.5076 40.854 42.2315 40.8976 41.781 40.7813C41.3305 40.665 41.0253 40.5197 41.1415 39.9674C41.2578 39.3715 41.345 38.7757 41.3741 38.1798C41.4322 37.2206 41.4758 36.2614 41.2723 35.2876C41.0689 34.2848 41.8246 33.4419 42.8273 33.5C43.147 33.5145 43.3214 33.4273 43.4231 33.1221C43.5394 32.7879 43.6847 32.4681 43.83 32.0612Z" fill="#CF1C21"/>
<path d="M53.9736 43.9928C53.7411 44.4869 54.1044 44.7485 54.3224 45.0392C55.049 46.042 55.6594 47.1029 56.1099 48.2511C56.3279 48.7888 56.2407 49.2248 55.8047 49.6172C54.6712 50.6782 53.4504 51.6229 52.0989 52.4077C51.6339 52.6693 51.3868 52.6693 51.2851 52.0589C50.7765 49.1667 50.0644 46.3472 48.5821 43.7748C48.4367 43.5277 48.4803 43.3824 48.7274 43.2661C50.2533 42.6121 51.6193 41.6965 52.8255 40.5774C53.0871 40.3303 53.2906 40.4175 53.5086 40.621C55.0635 42.0743 56.3424 43.7166 57.2289 45.6641C57.4759 46.1873 57.1853 46.8704 56.6766 47.1029C56.386 47.2337 56.3424 46.9867 56.2552 46.8413C55.7175 46.1001 55.1943 45.3444 54.6566 44.5886C54.4822 44.3706 54.2933 44.1236 53.9736 43.9928Z" fill="#CF1C21"/>
<path d="M43.1465 21.9455C43.1319 21.9891 43.1465 22.0618 43.1174 22.0763C41.8676 23.0792 42.6524 24.2128 42.9139 25.3028C43.0011 25.6516 43.3209 25.6807 43.6115 25.7097C44.5852 25.8115 45.4717 25.5353 46.3581 25.1865C46.5907 25.0848 46.954 24.7214 47.172 25.1865C47.4045 25.6807 46.9394 25.826 46.6343 25.9568C45.6606 26.3928 44.6142 26.4945 43.5824 26.3783C42.9575 26.3056 42.943 26.5817 43.0302 27.0177C43.2918 28.2822 43.7714 29.4739 44.5561 30.5203C45.3263 31.5522 46.5035 31.5231 47.2737 30.4622C47.7533 29.7936 47.9276 29.0234 48.0003 28.2095C48.0294 27.8898 47.9276 27.5264 48.4944 27.4101C48.9013 27.3375 48.6107 26.8288 48.6397 26.5236C48.6543 26.3928 48.6252 26.2475 48.5961 25.9277C49.1048 26.6108 49.1338 27.2212 49.1048 27.8316C49.1048 27.9188 49.0612 28.0642 49.003 28.0787C48.2038 28.2967 48.4217 28.9652 48.3345 29.503C48.2764 29.8518 48.2038 30.2151 48.073 30.5494C47.7678 31.4069 47.0993 31.8719 46.2564 32.0463C45.4135 32.2207 44.8032 31.7847 44.3236 31.1743C43.3499 29.9244 42.8558 28.4711 42.4634 26.9596C42.2164 26.044 42.0275 25.1284 41.795 24.2128C41.6206 23.5297 41.4607 23.4716 41.0393 23.9802C40.5452 24.5761 40.1237 24.547 39.6006 24.0965C39.3971 23.9221 39.1646 23.7913 38.9466 23.646C37.8567 22.9048 37.8567 22.9048 38.2345 21.5967C38.3072 21.3642 38.4089 21.1462 38.438 20.8991C38.5397 20.2015 38.8013 19.8963 39.6006 20.1143C40.1964 20.2887 40.6614 19.7946 40.9811 19.344C41.4898 18.6319 42.0129 18.2831 42.8849 18.8063C43.3063 19.0534 43.7423 18.8063 44.062 18.4866C44.6869 17.8471 45.3554 17.7018 46.1111 18.2686C46.8958 18.8499 47.7097 18.8354 48.5525 18.3994C49.0466 18.1378 49.4681 18.1959 49.7151 18.7772C49.8023 18.9952 49.9767 19.1842 50.1075 19.3876C51.1393 20.9718 51.1393 20.9718 49.8023 22.2798C49.5262 22.556 49.2937 22.6868 48.9158 22.4978C48.5235 22.2943 48.3927 22.4833 48.3636 22.8466C48.3055 23.5442 48.2619 24.2418 48.1892 25.1284C47.7969 23.7622 47.5789 22.5705 47.8259 21.3351C47.9131 20.8846 48.0875 20.8119 48.4363 21.1753C48.6252 21.3787 48.7996 21.8874 49.221 21.4659C49.5553 21.1171 50.1075 20.8265 49.6425 20.1434C48.974 19.1551 49.003 19.097 47.884 19.4894C47.172 19.7364 46.5761 19.7219 46.0239 19.1842C45.5879 18.7627 45.1665 18.7772 44.6869 19.1696C44.1492 19.6056 43.6551 20.1143 42.9721 20.4486C42.8849 20.1434 43.1901 19.7219 42.6233 19.6056C42.1437 19.5039 41.795 19.5039 41.5188 19.9545C41.388 20.1579 41.1701 20.3033 41.0538 20.5067C40.7922 20.9573 40.4434 21.1317 39.9203 21.059C39.0483 20.9282 39.2372 21.7566 38.9757 22.1781C38.7141 22.5996 39.15 22.6722 39.3535 22.8757C40.022 23.5152 40.6324 23.3844 41.3299 22.8612C41.8531 22.4542 42.4198 22.0182 43.1465 21.9455Z" fill="#CF1C21"/>
<path d="M48.2333 49.0945C46.3731 47.8882 46.1987 46.1151 47.7101 44.7199C47.9572 44.4874 48.088 44.5019 48.2333 44.8071C48.4803 45.3303 48.7129 45.7954 48.4658 46.4349C48.1461 47.2342 48.2769 48.1353 48.2333 49.0945Z" fill="#CF1C21"/>
<path d="M30.6488 34.1104C30.271 35.5492 31.1139 36.3776 32.0294 37.2205C32.8868 38.0199 32.9304 38.5431 32.3491 39.5749C32.2038 38.514 31.5934 37.9181 30.8814 37.3659C29.4862 36.3194 29.4136 35.5346 30.6488 34.1104Z" fill="#CF1C21"/>
<path d="M46.6925 24.0239C46.3438 23.4716 46.3292 22.8321 46.2275 22.2217C46.1548 21.7131 45.9369 21.6985 45.6462 22.0037C45.0068 22.6577 44.6871 22.1055 44.2656 21.6549C45.0504 22.0183 45.5445 21.6259 46.0241 21.1317C46.2856 20.8556 46.5763 20.812 46.649 21.3352C46.7507 22.0037 46.896 22.6577 46.9832 23.3263C47.0268 23.5734 46.9687 23.835 46.6925 24.0239Z" fill="#CF1C21"/>
<path d="M29.0795 35.9268C28.8179 36.8278 29.3265 37.3074 29.8497 37.7725C30.3002 38.1649 30.5182 38.63 30.184 39.4729C29.9805 38.5137 29.3411 38.1359 28.8034 37.6417C28.2657 37.1766 28.3529 36.5953 29.0795 35.9268Z" fill="#CF1C21"/>
<path d="M32.4799 34.6333C32.3637 35.6216 32.8578 36.1593 33.4827 36.668C33.8605 36.9732 33.875 37.4673 33.6425 38.0196C33.3955 37.3365 32.9595 36.9151 32.4509 36.5226C31.6516 35.9122 31.6516 35.5925 32.4799 34.6333Z" fill="#CF1C21"/>
<path d="M46.591 41.929C46.5329 42.1906 46.4166 42.394 46.126 42.3795C45.8062 42.365 45.5592 42.2196 45.5883 41.8563C45.6028 41.5947 45.7626 41.4058 46.0388 41.4058C46.373 41.4058 46.5329 41.6238 46.591 41.929Z" fill="#CF1C21"/>
<path d="M45.7336 39.2261C46.0387 39.2697 46.2567 39.415 46.2713 39.7202C46.2858 39.9963 46.0678 40.1417 45.8062 40.1708C45.5446 40.1998 45.3267 40.1126 45.3121 39.7929C45.2976 39.4877 45.4284 39.2987 45.7336 39.2261Z" fill="#CF1C21"/>
<path d="M43.147 21.9459C43.147 21.9314 43.1615 21.9023 43.1615 21.8877C43.1615 21.9023 43.147 21.9168 43.147 21.9459Z" fill="#CF1C21"/>
<path d="M75.394 71.403C75.3649 71.3884 75.3504 71.3739 75.3213 71.3594C75.3358 71.3594 75.3504 71.3594 75.3504 71.3594C75.3794 71.3739 75.3794 71.3884 75.394 71.403C75.3794 71.4175 75.394 71.403 75.394 71.403Z" fill="#CF1C21"/>
<path d="M69.1167 79.8037C69.1458 79.7892 69.1603 79.7747 69.1894 79.7456C69.1749 79.7747 69.1603 79.8037 69.1458 79.8183C69.1458 79.8328 69.1167 79.8037 69.1167 79.8037Z" fill="#CF1C21"/>
<path d="M30.7216 41.9436C31.0123 41.8564 31.2012 41.8128 31.2157 42.1761C31.2303 42.6121 31.6081 42.6702 31.8988 42.6266C32.2185 42.583 32.6981 42.6121 32.6399 42.0598C32.5963 41.682 32.8579 41.7982 33.0032 41.8273C33.7589 41.9436 34.5146 41.8418 35.2848 42.2778C35.6627 42.4958 36.1277 42.6702 36.5346 42.9464C37.1014 43.3388 37.2176 43.7603 36.7381 44.2253C36.1277 44.8212 35.4447 45.3153 34.5001 45.0537C34.3838 45.0247 34.224 44.9375 34.1949 45.1991C34.1804 45.388 33.9478 45.3735 33.8461 45.3444C32.8288 45.0101 31.8116 45.795 30.7943 45.3444C30.4601 45.1991 29.8497 45.5043 29.8497 44.7921C29.8497 44.7776 29.6753 44.7485 29.5881 44.7631C28.847 44.8793 28.0913 44.4288 27.9459 43.7748C27.8152 43.1935 28.2221 42.7574 29.0504 42.5249C29.6462 42.3505 30.0967 41.7837 30.7216 41.9436ZM30.6054 43.862C30.8524 43.8475 31.1722 43.8184 31.2012 43.4987C31.2303 43.1935 30.9106 43.1644 30.678 43.1499C30.4019 43.1353 30.0822 43.1789 30.0532 43.4841C30.0386 43.7603 30.3147 43.8475 30.6054 43.862ZM35.0378 43.4696C34.7907 43.5277 34.4274 43.5132 34.3984 43.8039C34.3693 44.1236 34.7326 44.1381 34.9942 44.1527C35.2558 44.1527 35.59 44.1527 35.59 43.8184C35.59 43.5277 35.2558 43.5277 35.0378 43.4696Z" fill="#E4E22C"/>
<path d="M33.439 46.2602C34.369 46.0568 35.2991 45.9259 36.1856 45.6062C36.6216 45.4463 37.0866 45.3301 37.4063 45.0103C38.0021 44.429 38.4817 43.8913 39.499 44.0657C40.1675 44.1819 40.3419 43.4117 40.3855 42.8012C40.4581 41.5368 40.6034 41.4642 41.6788 42.1618C41.8678 42.278 42.0422 42.4088 42.202 42.5542C43.2193 43.4407 43.1466 44.4435 41.984 45.1411C41.0685 45.7079 40.0367 45.955 38.9758 46.144C37.1447 46.4492 35.2991 46.4056 33.439 46.2602Z" fill="#E4E22C"/>
<path d="M37.4498 42.3363C35.9965 41.6532 34.5578 41.2027 32.9883 41.2027C33.3371 40.9556 33.962 40.8539 35.2408 40.8394C35.5751 40.8394 35.9093 40.883 36.2436 40.912C37.3771 40.9992 37.3771 40.9992 37.4498 42.3363Z" fill="#E4E22C"/>
<path d="M39.2671 38.6448C39.6013 38.5722 39.7902 38.5431 39.8193 38.921C39.8774 39.6767 39.3107 39.5895 38.8747 39.6913C38.337 39.8075 38.2789 39.2843 38.2934 39.0808C38.3661 38.4123 39.02 38.8338 39.2671 38.6448Z" fill="#E4E22C"/>
<path d="M30.6055 43.8624C30.3149 43.8624 30.0388 43.7606 30.0533 43.499C30.0678 43.1793 30.4021 43.1357 30.6782 43.1648C30.9107 43.1793 31.2304 43.2084 31.2013 43.5136C31.1723 43.8188 30.8526 43.8478 30.6055 43.8624Z" fill="#CF1C21"/>
<path d="M35.0378 43.4697C35.2558 43.5279 35.6046 43.5279 35.59 43.8185C35.59 44.1528 35.2558 44.1673 34.9942 44.1528C34.7326 44.1528 34.3839 44.1237 34.3984 43.804C34.4129 43.5133 34.7908 43.5279 35.0378 43.4697Z" fill="#CF1C21"/>
</g>
<defs>
<clipPath id="clip0">
<rect width="260" height="93" fill="white"/>
</clipPath>
</defs>
</svg>
