<svg width="14" height="15" viewBox="0 0 14 15" fill="none" xmlns="http://www.w3.org/2000/svg">
<path fill-rule="evenodd" clip-rule="evenodd" d="M7 15C8.85652 15 10.637 14.2098 11.9497 12.8033C13.2625 11.3968 14 9.48912 14 7.5C14 5.51088 13.2625 3.60322 11.9497 2.1967C10.637 0.790176 8.85652 0 7 0C5.14348 0 3.36301 0.790176 2.05025 2.1967C0.737498 3.60322 0 5.51088 0 7.5C0 9.48912 0.737498 11.3968 2.05025 12.8033C3.36301 14.2098 5.14348 15 7 15ZM7.875 3.75C7.875 3.50136 7.78281 3.2629 7.61872 3.08709C7.45462 2.91127 7.23206 2.8125 7 2.8125C6.76794 2.8125 6.54538 2.91127 6.38128 3.08709C6.21719 3.2629 6.125 3.50136 6.125 3.75V7.5C6.12505 7.74862 6.21727 7.98704 6.38138 8.16281L8.85588 10.815C8.93717 10.9021 9.03368 10.9712 9.1399 11.0183C9.24612 11.0655 9.35997 11.0897 9.47494 11.0897C9.58991 11.0897 9.70375 11.0655 9.80997 11.0183C9.91619 10.9712 10.0127 10.9021 10.094 10.815C10.1753 10.7279 10.2398 10.6245 10.2838 10.5107C10.3278 10.3969 10.3504 10.2749 10.3504 10.1517C10.3504 10.0285 10.3278 9.90656 10.2838 9.79275C10.2398 9.67895 10.1753 9.57554 10.094 9.48844L7.875 7.11188V3.75Z" fill="#666666"/>
</svg>
