<svg width="15" height="15" viewBox="0 0 15 15" fill="none" xmlns="http://www.w3.org/2000/svg">
<path d="M14.7243 11.7499L11.3016 8.63784C11.1398 8.49078 10.9272 8.41235 10.7087 8.41911C10.4901 8.42587 10.2828 8.51728 10.1304 8.67404L8.11545 10.7462C7.63046 10.6536 6.65542 10.3496 5.65175 9.34849C4.64809 8.34398 4.34412 7.36641 4.25403 6.88479L6.32451 4.86904C6.48147 4.71674 6.57302 4.50935 6.57977 4.29076C6.58653 4.07216 6.50797 3.85951 6.36072 3.69781L3.24952 0.275917C3.10221 0.113711 2.89746 0.0153214 2.67877 0.00164341C2.46008 -0.0120345 2.24468 0.0600771 2.0783 0.202663L0.251154 1.76963C0.105581 1.91573 0.0186937 2.11018 0.00697343 2.31609C-0.0056566 2.52659 -0.246469 7.51292 3.62 11.3811C6.99306 14.7533 11.2182 15 12.3819 15C12.552 15 12.6564 14.9949 12.6842 14.9933C12.89 14.9817 13.0844 14.8945 13.2298 14.7482L14.7959 12.9203C14.939 12.7544 15.0117 12.5392 14.9983 12.3205C14.9849 12.1018 14.8866 11.897 14.7243 11.7499Z" fill="#666666"/>
</svg>
