<svg width="36" height="35" viewBox="0 0 36 35" fill="none" xmlns="http://www.w3.org/2000/svg">
<path d="M16.8523 22.222C15.0436 22.0316 13.4157 21.5827 12.0205 20.4827C11.8466 20.3463 11.6681 20.2147 11.5107 20.0596C10.9 19.472 10.8366 18.7927 11.3228 18.097C11.7339 17.5 12.4268 17.3401 13.1503 17.6809C13.2898 17.7497 13.4234 17.8299 13.5496 17.9207C16.15 19.7211 19.7228 19.7705 22.3348 18.0006C22.586 17.7956 22.876 17.6436 23.1875 17.554C23.4764 17.4694 23.7853 17.4846 24.0644 17.5971C24.3436 17.7097 24.5767 17.9131 24.7261 18.1745C25.109 18.8021 25.1019 19.4132 24.6321 19.8998C23.9116 20.6331 23.0404 21.2009 22.0788 21.5639C21.1674 21.9211 20.1667 22.0998 19.1778 22.2196C19.3281 22.3842 19.3986 22.4641 19.4926 22.5581C20.8338 23.9167 22.1822 25.2705 23.5211 26.6338C23.9768 27.0991 24.0731 27.675 23.8217 28.2156C23.5469 28.8032 22.9315 29.1934 22.3301 29.1511C21.9652 29.1143 21.6277 28.9404 21.3858 28.6645C20.3734 27.6374 19.3422 26.6291 18.3486 25.5831C18.0597 25.2776 17.9188 25.3363 17.6651 25.5996C16.6456 26.6573 15.6097 27.6985 14.5668 28.735C14.0993 29.1981 13.5426 29.2827 13 29.0171C12.722 28.886 12.4877 28.6775 12.3252 28.4165C12.1628 28.1555 12.079 27.8532 12.0839 27.5457C12.1143 27.1652 12.2911 26.8112 12.5772 26.5585L16.5563 22.5416C16.6433 22.4523 16.7255 22.3583 16.8523 22.222Z" fill="#FFCCCC"/>
<path d="M17.9542 17.5C16.369 17.4864 14.8535 16.8642 13.7382 15.7688C12.6228 14.6735 11.998 13.194 12 11.6527C12.0076 10.1047 12.6463 8.62282 13.7759 7.53195C14.9056 6.44108 16.434 5.83024 18.0262 5.83334C18.8181 5.8376 19.6013 5.99405 20.3308 6.2937C21.0603 6.59335 21.7217 7.03028 22.2768 7.57936C22.832 8.12844 23.27 8.77882 23.5656 9.49309C23.8613 10.2074 24.0088 10.9714 23.9996 11.7413C23.9828 14.9286 21.2709 17.5116 17.9542 17.5ZM20.9397 11.662C20.9407 11.287 20.8653 10.9155 20.7179 10.569C20.5705 10.2225 20.3541 9.90773 20.081 9.6429C19.808 9.37807 19.4837 9.1684 19.1269 9.02596C18.7701 8.88353 18.3879 8.81115 18.0022 8.813C17.6134 8.81111 17.2282 8.88451 16.8689 9.02892C16.5097 9.17334 16.1836 9.38586 15.9097 9.6541C15.6358 9.92235 15.4196 10.2409 15.2737 10.5913C15.1278 10.9416 15.0551 11.3167 15.0599 11.6947C15.0618 12.0697 15.14 12.4406 15.29 12.7861C15.4399 13.1316 15.6588 13.4448 15.9339 13.7076C16.2089 13.9705 16.5348 14.1779 16.8926 14.3178C17.2505 14.4576 17.6333 14.5273 18.019 14.5226C18.4045 14.523 18.7862 14.449 19.1421 14.3051C19.498 14.1612 19.8211 13.9502 20.0926 13.6842C20.3642 13.4182 20.5789 13.1026 20.7243 12.7555C20.8696 12.4084 20.9429 12.0367 20.9397 11.662Z" fill="#FFCCCC"/>
<path d="M6.67964 0C4.91021 0.00670354 3.21522 0.693053 1.96404 1.90948C0.712855 3.12591 0.00689507 4.77381 0 6.49409V28.5059C0.00689507 30.2262 0.712855 31.8741 1.96404 33.0905C3.21522 34.3069 4.91021 34.9933 6.67964 35H29.3204C31.0898 34.9933 32.7848 34.3069 34.036 33.0905C35.2871 31.8741 35.9931 30.2262 36 28.5059V6.49409C35.9931 4.77381 35.2871 3.12591 34.036 1.90948C32.7848 0.693053 31.0898 0.00670354 29.3204 0H6.67964ZM6.67964 3.18182H29.3204C31.2185 3.18182 32.7273 4.64864 32.7273 6.49409V28.5059C32.7273 30.3514 31.2185 31.8182 29.3204 31.8182H6.67964C6.23145 31.8209 5.78715 31.7371 5.37253 31.5716C4.95791 31.4062 4.58122 31.1623 4.26429 30.8542C3.94737 30.546 3.69652 30.1798 3.52631 29.7767C3.3561 29.3736 3.2699 28.9416 3.27273 28.5059V6.49409C3.27273 4.64864 4.78145 3.18182 6.67964 3.18182Z" fill="#FFCCCC"/>
</svg>
