<svg width="52" height="52" viewBox="0 0 52 52" fill="none" xmlns="http://www.w3.org/2000/svg">
<path d="M19.4998 46.2222C21.4941 46.2222 23.1109 44.6055 23.1109 42.6111C23.1109 40.6167 21.4941 39 19.4998 39C17.5054 39 15.8887 40.6167 15.8887 42.6111C15.8887 44.6055 17.5054 46.2222 19.4998 46.2222Z" fill="white"/>
<path d="M38.2776 46.2222C40.272 46.2222 41.8887 44.6055 41.8887 42.6111C41.8887 40.6167 40.272 39 38.2776 39C36.2833 39 34.6665 40.6167 34.6665 42.6111C34.6665 44.6055 36.2833 46.2222 38.2776 46.2222Z" fill="white"/>
<path d="M47.811 9.23009C47.6764 9.05529 47.5036 8.91364 47.3058 8.81599C47.108 8.71834 46.8905 8.66729 46.6699 8.66676H13.3032L12.6532 6.6012C12.5818 6.37942 12.4578 6.1782 12.2918 6.01471C12.1258 5.85123 11.9227 5.73032 11.6999 5.66231L5.77765 3.84231C5.59555 3.78636 5.40421 3.76681 5.21456 3.7848C5.02491 3.80279 4.84066 3.85796 4.67233 3.94715C4.33236 4.12729 4.07789 4.4351 3.96487 4.80287C3.85186 5.17064 3.88957 5.56823 4.06971 5.9082C4.24985 6.24816 4.55766 6.50264 4.92543 6.61565L10.111 8.20454L16.7265 29.1056L14.3721 31.0412L14.1843 31.229C13.6021 31.9032 13.2722 32.7588 13.2511 33.6494C13.23 34.54 13.5191 35.4102 14.0688 36.1112C14.4625 36.59 14.9627 36.97 15.5296 37.2208C16.0964 37.4716 16.7141 37.5863 17.3332 37.5556H41.441C41.8241 37.5556 42.1915 37.4035 42.4624 37.1326C42.7332 36.8617 42.8854 36.4943 42.8854 36.1112C42.8854 35.7281 42.7332 35.3607 42.4624 35.0898C42.1915 34.8189 41.8241 34.6668 41.441 34.6668H17.1021C16.9358 34.6611 16.7737 34.6126 16.6316 34.526C16.4895 34.4394 16.3721 34.3176 16.2907 34.1724C16.2094 34.0272 16.1669 33.8635 16.1674 33.697C16.1678 33.5306 16.2111 33.3671 16.2932 33.2223L19.7743 30.3334H42.0621C42.3921 30.343 42.7154 30.2393 42.9782 30.0396C43.241 29.8399 43.4275 29.5561 43.5065 29.2356L48.1288 10.4579C48.1727 10.2425 48.1669 10.02 48.1118 9.80724C48.0568 9.59448 47.9539 9.39708 47.811 9.23009V9.23009Z" fill="white"/>
</svg>
