<svg width="36" height="36" viewBox="0 0 36 36" fill="none" xmlns="http://www.w3.org/2000/svg">
<path d="M6.67964 0C4.91021 0.00689507 3.21522 0.712855 1.96404 1.96404C0.712855 3.21522 0.00689507 4.91021 0 6.67964V29.3204C0.00689507 31.0898 0.712855 32.7848 1.96404 34.036C3.21522 35.2871 4.91021 35.9931 6.67964 36H29.3204C31.0898 35.9931 32.7848 35.2871 34.036 34.036C35.2871 32.7848 35.9931 31.0898 36 29.3204V6.67964C35.9931 4.91021 35.2871 3.21522 34.036 1.96404C32.7848 0.712855 31.0898 0.00689507 29.3204 0H6.67964ZM6.67964 3.27273H29.3204C31.2185 3.27273 32.7273 4.78145 32.7273 6.67964V29.3204C32.7273 31.2185 31.2185 32.7273 29.3204 32.7273H6.67964C6.23145 32.7301 5.78715 32.6439 5.37253 32.4737C4.95791 32.3035 4.58122 32.0526 4.26429 31.7357C3.94737 31.4188 3.69652 31.0421 3.52631 30.6275C3.3561 30.2128 3.2699 29.7686 3.27273 29.3204V6.67964C3.27273 4.78145 4.78145 3.27273 6.67964 3.27273ZM17.5402 11.8309C16.3375 11.8195 15.3147 11.8309 14.7404 12.1124C14.3558 12.2989 14.0629 12.7195 14.2413 12.7391C14.4655 12.7718 14.9695 12.8798 15.2395 13.2447C15.5831 13.7111 15.5716 14.7665 15.5716 14.7665C15.5716 14.7665 15.7631 17.6678 15.1036 18.0327C14.6504 18.2815 14.0302 17.7758 12.6884 15.4685C12.0044 14.2805 11.4873 12.9698 11.4873 12.9698C11.4873 12.9698 11.3891 12.726 11.2124 12.5984C10.9947 12.4396 10.6936 12.3873 10.6936 12.3873L7.49127 12.4069C7.49127 12.4069 7.01182 12.4265 6.84 12.6311C6.67964 12.8225 6.82691 13.1989 6.82691 13.1989C6.82691 13.1989 9.33218 19.0604 12.1696 22.014C14.7715 24.7255 17.7251 24.5455 17.7251 24.5455H19.0669C19.0669 24.5455 19.4695 24.5013 19.674 24.2836C19.8671 24.0791 19.8605 23.6945 19.8605 23.6945C19.8605 23.6945 19.8344 21.8995 20.6656 21.6311C21.4904 21.3742 22.5376 23.3689 23.6569 24.1364C24.5078 24.7173 25.1525 24.5896 25.1525 24.5896L28.1455 24.5455C28.1455 24.5455 29.7049 24.4489 28.9636 23.2151C28.9064 23.1202 28.5349 22.3085 26.7464 20.646C24.8662 18.9082 25.1165 19.1896 27.378 16.1787C28.7525 14.3444 29.3024 13.2251 29.1289 12.7391C28.9653 12.2858 27.954 12.4069 27.954 12.4069L24.5847 12.4265C24.5847 12.4265 24.336 12.3938 24.1511 12.5035C24.024 12.5979 23.9226 12.7228 23.8565 12.8667C23.8565 12.8667 23.3198 14.2855 22.6096 15.4947C21.114 18.0376 20.5069 18.1784 20.2647 18.0196C19.6953 17.6482 19.836 16.5355 19.836 15.75C19.836 13.2758 20.2124 12.2531 19.1078 11.9864C18.7429 11.8964 18.4745 11.8391 17.5418 11.8309H17.5402Z" fill="#FFCCCC"/>
</svg>
